<svg width="83" height="82" viewBox="0 0 83 82" fill="none" xmlns="http://www.w3.org/2000/svg">
<rect width="83" height="82" rx="20" fill="#E11D38"/>
<g clip-path="url(#clip0)">
<path d="M12.0001 61.215C12.3513 60.7825 12.8159 60.6687 13.3484 60.7142C13.6657 60.737 13.9829 60.7142 14.3568 60.7142C14.3568 60.4069 14.3568 60.1565 14.3568 59.9175C14.3568 50.0381 14.3568 40.1587 14.3568 30.2679C14.3568 28.1737 15.4785 26.6144 17.3707 26.1136C17.7899 25.9997 18.2318 25.977 18.6623 25.9656C19.2062 25.9428 19.7501 25.9542 20.2712 25.9542C20.2033 25.3396 20.056 24.7591 20.09 24.2014C20.1806 22.8925 20.8718 21.9478 22.0274 21.3332C25.0413 19.7284 28.0552 18.1235 31.0691 16.5187C33.4144 15.2667 35.7711 14.0261 38.1165 12.7627C39.986 11.7611 41.8669 11.727 43.7477 12.7058C44.4502 13.07 45.1527 13.4456 45.8438 13.8212C46.4217 14.1399 46.603 14.5952 46.3537 15.0732C46.1044 15.5285 45.6059 15.6309 45.028 15.3236C44.3595 14.9708 43.6911 14.618 43.0339 14.2537C41.6856 13.5253 40.3259 13.5253 38.9776 14.2424C33.5957 17.1106 28.2138 19.9788 22.8319 22.8356C22.1747 23.1884 21.7668 23.7006 21.7668 24.4518C21.7555 25.2258 22.1747 25.7607 22.8546 26.1136C28.2365 28.9704 33.6184 31.8386 39.0003 34.6954C40.258 35.367 41.527 35.4352 42.796 34.7979C44.1783 34.1036 45.5266 33.3524 46.9655 32.6012C46.5803 32.1459 46.229 31.7362 45.8665 31.3264C44.1329 29.346 42.3994 27.3656 40.6772 25.3851C40.6319 25.3282 40.5752 25.2713 40.5299 25.2144C40.0767 24.6795 40.054 24.1559 40.4732 23.8144C40.8811 23.473 41.3797 23.5868 41.8442 24.1104C42.728 25.1233 43.6117 26.1363 44.4955 27.1493C45.8212 28.6745 47.1581 30.1996 48.5178 31.7589C49.2203 31.3947 49.8887 31.0305 50.5686 30.6663C53.4351 29.1411 56.3017 27.616 59.1683 26.0908C60.1087 25.59 60.5279 24.6795 60.1087 23.8258C59.9048 23.4047 59.4855 23.0063 59.0663 22.7787C55.5652 20.8779 52.0415 19.0227 48.5291 17.1447C48.4498 17.0992 48.3592 17.065 48.2798 17.0195C47.804 16.735 47.6453 16.2455 47.8719 15.813C48.0986 15.4033 48.5744 15.2553 49.0503 15.5057C50.1267 16.0521 51.1917 16.6325 52.2568 17.2016C54.6362 18.465 57.0155 19.7398 59.4062 21.0031C61.729 22.2324 62.2615 23.3478 61.6836 25.9428C62.2162 25.9428 62.7487 25.9428 63.2699 25.9428C65.9778 25.9542 67.6547 27.616 67.6547 30.3362C67.6547 40.1814 67.6547 50.0267 67.6547 59.8719C67.6547 60.1223 67.6547 60.3614 67.6547 60.7028C68.1306 60.7028 68.5838 60.6914 69.0257 60.7028C69.7168 60.7256 70.0341 61.0215 70.0114 61.7272C69.9774 62.7629 70.0341 63.8328 69.7962 64.8344C69.2523 67.2132 67.2015 68.8977 64.7768 68.9432C61.2644 69.0115 57.752 68.9774 54.2396 68.9774C42.1388 68.9774 30.038 68.966 17.9259 68.9888C15.6371 68.9888 13.8469 68.1351 12.7026 66.1205C12.3627 65.5287 12.2267 64.8116 11.9888 64.1629C12.0001 63.184 12.0001 62.1938 12.0001 61.215ZM16.0564 60.6801C32.7346 60.6801 49.3109 60.6801 65.9212 60.6801C65.9325 60.4866 65.9438 60.3386 65.9438 60.1906C65.9438 50.1974 65.9438 40.1928 65.9438 30.1996C65.9438 28.6745 64.9921 27.707 63.4738 27.6842C62.3748 27.6615 61.2871 27.6729 60.188 27.6729C60.0634 27.6729 59.9048 27.6615 59.8028 27.7184C58.4771 28.4127 57.1515 29.1184 55.8258 29.8126C56.0524 29.9492 56.2564 29.9492 56.449 29.9492C58.4545 29.9492 60.4486 29.9492 62.4541 29.9492C63.4398 29.9492 63.6778 30.1882 63.6778 31.2012C63.6778 39.8741 63.6778 48.5357 63.6778 57.2086C63.6778 58.2216 63.4512 58.4492 62.4428 58.4492C50.7725 58.4492 39.1023 58.4492 27.432 58.4492C27.2394 58.4492 27.0468 58.4492 26.8655 58.4151C26.4123 58.3126 26.1744 58.0053 26.197 57.5501C26.2197 57.1062 26.4803 56.8102 26.9448 56.7647C27.1714 56.742 27.398 56.742 27.6246 56.742C38.819 56.742 50.0247 56.742 61.2191 56.742C61.457 56.742 61.695 56.742 61.9216 56.742C61.9216 48.3308 61.9216 40.0221 61.9216 31.702C59.3949 31.702 56.9022 31.702 54.3642 31.702C54.3642 32.6353 54.3642 33.5459 54.3642 34.4564C54.3869 38.0986 52.8006 40.7278 49.4809 42.2757C49.3562 42.3326 49.1749 42.4578 49.1749 42.5489C49.1976 43.1749 49.0163 43.8236 49.3902 44.4269C49.9227 45.2805 50.4099 46.1569 50.8858 47.0333C51.441 48.0576 51.2824 49.2072 50.5346 50.0381C49.9001 50.7438 49.073 50.8917 48.1665 50.8803C45.8665 50.8462 44.6881 48.8088 45.8325 46.7943C46.2857 46.0089 46.7729 45.235 47.1695 44.4269C47.3734 44.0171 47.4074 43.5391 47.5547 43.0041C47.2261 43.0838 47.0788 43.1066 46.9315 43.1521C42.4447 44.37 38.0259 44.1651 33.6184 42.7196C29.3808 41.331 27.4434 37.9165 27.6133 34.2971C27.6473 33.4434 27.6246 32.6012 27.6246 31.7134C25.0753 31.7134 22.5826 31.7134 20.056 31.7134C20.056 40.0676 20.056 48.3877 20.056 56.7533C20.2939 56.7533 20.4979 56.7533 20.7018 56.7533C21.6649 56.7533 22.628 56.742 23.591 56.7647C24.1576 56.7761 24.4635 57.0948 24.4748 57.5842C24.4861 58.0736 24.1576 58.4037 23.625 58.4606C23.5117 58.472 23.3984 58.472 23.2851 58.472C22.0161 58.472 20.7585 58.472 19.4895 58.472C18.5717 58.472 18.3224 58.2102 18.3224 57.2883C18.3224 48.5812 18.3224 39.8741 18.3224 31.1671C18.3224 30.2338 18.5717 29.9834 19.5008 29.9834C21.5176 29.9834 23.5457 29.9834 25.5625 29.9834C25.7551 29.9834 25.9591 29.9834 26.1517 29.9834C25.8005 29.6533 25.4039 29.4826 25.064 29.2435C23.1945 27.9346 21.1324 27.5477 18.8663 27.6615C17.1781 27.7412 16.0337 28.7086 16.045 30.5069C16.0904 40.3294 16.0677 50.1633 16.0677 59.9858C16.0564 60.1793 16.0564 60.4069 16.0564 60.6801ZM13.5863 62.4215C13.7223 63.2979 13.7223 64.0832 13.9602 64.8003C14.4928 66.4051 15.9431 67.2701 17.8805 67.2701C27.8512 67.2701 37.8106 67.2701 47.7813 67.2701C53.2539 67.2701 58.7264 67.236 64.199 67.2815C66.737 67.3043 68.6971 65.2669 68.2212 62.4328C68.0626 62.4215 67.8927 62.4101 67.734 62.4101C61.3211 62.4101 54.8968 62.4101 48.4838 62.3987C48.1212 62.3987 47.9739 62.5125 47.8606 62.8654C47.3394 64.5157 45.9571 65.6084 44.2462 65.6539C42.0595 65.7108 39.8614 65.7222 37.6746 65.6425C35.9411 65.5856 34.7514 64.6068 34.1622 62.9792C33.9923 62.5125 33.7883 62.3987 33.3238 62.3987C27.0241 62.4328 20.7018 62.4215 14.3795 62.4215C14.1755 62.4215 13.9716 62.4215 13.5863 62.4215ZM29.3355 31.5085C29.3355 32.7605 29.2902 33.8987 29.3468 35.0369C29.4601 37.6661 30.7065 39.6124 33.1198 40.6367C37.652 42.5489 42.2974 42.731 47.0108 41.3424C47.3621 41.24 47.4867 41.092 47.4754 40.7164C47.4527 38.7587 47.4641 36.8124 47.4641 34.8548C47.4641 34.6954 47.4527 34.5361 47.4414 34.2857C46.229 34.9231 45.0847 35.5263 43.9403 36.1409C41.9688 37.2108 40.02 37.1994 38.0599 36.1295C35.9751 34.9914 33.8677 33.8873 31.7715 32.7719C30.9784 32.3622 30.1966 31.9638 29.3355 31.5085ZM49.1636 40.5343C50.8858 39.6237 52.0868 38.3376 52.4154 36.5393C52.71 34.9231 52.6647 33.2499 52.7893 31.4289C51.4977 32.1118 50.4099 32.6922 49.3222 33.2955C49.2316 33.341 49.1749 33.5117 49.1749 33.6142C49.1636 35.8905 49.1636 38.1669 49.1636 40.5343ZM35.8165 62.4442C36.1677 63.4117 36.8815 63.9466 37.9013 63.9808C38.8417 64.0149 39.7821 63.9922 40.7338 63.9922C41.8895 63.9922 43.0339 64.0149 44.1896 63.9694C45.2093 63.9352 46.0024 63.2979 46.1724 62.4442C42.7166 62.4442 39.2949 62.4442 35.8165 62.4442ZM48.3138 45.9065C47.9059 46.6122 47.532 47.2268 47.2035 47.8642C46.8862 48.4902 47.2714 49.1048 47.9739 49.1503C48.1779 49.1617 48.3931 49.1617 48.5971 49.1503C49.3562 49.1162 49.7528 48.4902 49.4015 47.8073C49.073 47.1926 48.7104 46.6008 48.3138 45.9065Z" fill="white"/>
</g>
<defs>
<clipPath id="clip0">
<rect width="58" height="57" fill="white" transform="translate(12 12)"/>
</clipPath>
</defs>
</svg>
