<svg width="33" height="32" viewBox="0 0 33 32" fill="none" xmlns="http://www.w3.org/2000/svg">
<path d="M16.5 32C25.5265 32 33 24.7529 33 16C33 7.26275 25.5103 0 16.4838 0C7.47353 0 0 7.26275 0 16C0 24.7529 7.48971 32 16.5 32ZM16.5 29.3333C8.86471 29.3333 2.76618 23.4039 2.76618 16C2.76618 8.61176 8.84853 2.66667 16.4838 2.66667C24.1191 2.66667 30.2338 8.61176 30.25 16C30.2662 23.4039 24.1353 29.3333 16.5 29.3333ZM8.18529 15.9843C8.18529 16.3451 8.33088 16.6118 8.63824 16.9098L14.1059 22.2275C14.3162 22.4314 14.6074 22.5569 14.9471 22.5569C15.6103 22.5569 16.1118 22.0392 16.1118 21.4118C16.1118 21.0667 15.9824 20.7843 15.7559 20.5647L13.7338 18.6353L11.7765 17.0353L15.2059 17.1608H23.6338C24.3456 17.1608 24.8471 16.6588 24.8471 15.9843C24.8471 15.3098 24.3294 14.8078 23.6338 14.8078H15.2059L11.7926 14.9333L13.7338 13.349L15.7559 11.4039C15.9662 11.2 16.1118 10.9176 16.1118 10.5725C16.1118 9.92941 15.6103 9.44314 14.9471 9.44314C14.6074 9.44314 14.3162 9.55294 14.1059 9.75686L8.63824 15.0745C8.31471 15.3882 8.18529 15.6549 8.18529 15.9843Z" fill="white" fill-opacity="0.5"/>
</svg>
