<svg width="18" height="19" viewBox="0 0 18 19" fill="none" xmlns="http://www.w3.org/2000/svg">
<path d="M1 9.66211C1 9.88184 1.09668 10.084 1.27246 10.251L7.1084 16.0781C7.28418 16.2451 7.46875 16.3242 7.67969 16.3242C8.11035 16.3242 8.45312 16.0078 8.45312 15.5684C8.45312 15.3574 8.37402 15.1465 8.2334 15.0146L6.26465 13.0107L3.30273 10.3125L5.42969 10.4443H16.5479C17.0049 10.4443 17.3213 10.1191 17.3213 9.66211C17.3213 9.20508 17.0049 8.87988 16.5479 8.87988H5.42969L3.31152 9.01172L6.26465 6.31348L8.2334 4.30957C8.37402 4.16895 8.45312 3.9668 8.45312 3.75586C8.45312 3.31641 8.11035 3 7.67969 3C7.46875 3 7.28418 3.07031 7.09082 3.26367L1.27246 9.07324C1.09668 9.24023 1 9.44238 1 9.66211Z" fill="white"/>
</svg>
