<svg width="414" height="423" viewBox="0 0 414 423" fill="none" xmlns="http://www.w3.org/2000/svg">
<mask id="mask0" mask-type="alpha" maskUnits="userSpaceOnUse" x="0" y="0" width="414" height="423">
<rect opacity="0.99" width="414" height="423" fill="#181B23"/>
</mask>
<g mask="url(#mask0)">
<path d="M574.273 381.467C587.94 375.859 595.001 361.35 590.916 347.27L551.852 212.641C546.736 195.01 526.594 185.473 509.53 192.601L357.115 256.266C341.899 262.621 335.275 279.807 342.287 294.738L401.169 420.116C408.212 435.113 426.347 442.171 441.676 435.881L574.273 381.467Z" fill="url(#paint0_linear)"/>
<path d="M137.626 423.638L202.264 375.44L410.2 432.295L214.155 516.012L137.626 423.638Z" fill="url(#paint1_linear)"/>
<g style="mix-blend-mode:hard-light" filter="url(#filter0_d)">
<circle cx="431.872" cy="123.872" r="59.5" transform="rotate(-15 431.872 123.872)" fill="url(#paint2_linear)"/>
</g>
</g>
<defs>
<filter id="filter0_d" x="349" y="37" width="165.745" height="165.745" filterUnits="userSpaceOnUse" color-interpolation-filters="sRGB">
<feFlood flood-opacity="0" result="BackgroundImageFix"/>
<feColorMatrix in="SourceAlpha" type="matrix" values="0 0 0 0 0 0 0 0 0 0 0 0 0 0 0 0 0 0 127 0"/>
<feOffset dy="-4"/>
<feGaussianBlur stdDeviation="5"/>
<feColorMatrix type="matrix" values="0 0 0 0 0 0 0 0 0 0 0 0 0 0 0 0 0 0 0.0832605 0"/>
<feBlend mode="normal" in2="BackgroundImageFix" result="effect1_dropShadow"/>
<feBlend mode="normal" in="SourceGraphic" in2="effect1_dropShadow" result="shape"/>
</filter>
<linearGradient id="paint0_linear" x1="504.101" y1="219.588" x2="603.458" y2="388.268" gradientUnits="userSpaceOnUse">
<stop stop-color="#FF5175"/>
<stop offset="1" stop-color="#FF6441"/>
</linearGradient>
<linearGradient id="paint1_linear" x1="161" y1="439.303" x2="350.761" y2="387.651" gradientUnits="userSpaceOnUse">
<stop stop-color="#4692FF"/>
<stop offset="1" stop-color="#0069FF"/>
</linearGradient>
<linearGradient id="paint2_linear" x1="349.716" y1="102.015" x2="410.516" y2="178.995" gradientUnits="userSpaceOnUse">
<stop stop-color="#FFDF00"/>
<stop offset="1" stop-color="#FFA441"/>
</linearGradient>
</defs>
</svg>
