<svg width="133" height="57" viewBox="0 0 133 57" fill="none" xmlns="http://www.w3.org/2000/svg">
<path d="M0 0.0895615H25.4225L38.0696 16.6182L34.5679 21.3607L22.7546 6.13598H11.8903L29.4501 28.8644L10.5564 55.236H3.47603L22.3826 29.2351L0 0.0895615Z" fill="white"/>
<path d="M50.3189 0.0895615H57.0273L38.249 26.4356L60.6829 55.236H35.068L22.1387 39.0781L25.8071 33.9776L37.7616 49.6498H48.7284L30.8095 26.4356L50.3189 0.0895615Z" fill="white"/>
<path d="M66.8013 27.1898H54.7827V31.0886H66.8013V27.1898Z" fill="white"/>
<path d="M110.04 17.6279C110.04 20.5553 109.527 23.2142 108.501 25.6046C107.475 27.9951 106.154 30.4239 104.525 32.891L92.5832 50.6596H78.3969L90.7105 33.658L90.8516 33.4535C90.3385 33.6452 89.7742 33.773 89.1457 33.8753C88.5172 33.9648 87.9271 34.0159 87.3627 34.0159C85.1822 34.0159 83.1043 33.6324 81.1546 32.8654C79.205 32.0984 77.4734 31.0119 75.9855 29.593C74.4976 28.174 73.3047 26.4867 72.4325 24.5053C71.5474 22.5367 71.1113 20.338 71.1113 17.922C71.1113 15.1352 71.6244 12.6297 72.6505 10.3927C73.6767 8.16842 75.0748 6.27652 76.832 4.75533C78.5893 3.23413 80.6672 2.0453 83.0402 1.23996C85.4131 0.40906 87.9143 0 90.5694 0C93.263 0 95.8027 0.40906 98.1757 1.2144C100.549 2.03252 102.601 3.19578 104.345 4.72976C106.09 6.26374 107.475 8.11729 108.501 10.3032C109.527 12.4891 110.04 14.9307 110.04 17.6279ZM98.3681 17.4873C98.3681 15.3525 97.6754 13.5118 96.2901 11.9522C94.9048 10.3927 93.0193 9.61292 90.6336 9.61292C88.2478 9.61292 86.3366 10.3416 84.9129 11.8116C83.4891 13.2689 82.7708 15.1864 82.7708 17.564C82.7708 19.7883 83.4763 21.6418 84.8744 23.0991C86.2853 24.5564 88.1452 25.2978 90.4925 25.2978C92.8269 25.2978 94.7253 24.582 96.1747 23.1375C97.6369 21.693 98.3681 19.8139 98.3681 17.4873Z" fill="white"/>
<path d="M133 39.0908C133 41.8775 132.487 44.383 131.461 46.6201C130.435 48.8571 129.037 50.7362 127.279 52.2574C125.509 53.7914 123.444 54.9674 121.071 55.7728C118.698 56.5909 116.184 56.9872 113.542 56.9872C110.848 56.9872 108.322 56.5781 105.974 55.7728C103.627 54.9547 101.562 53.7914 99.8047 52.2574C98.0346 50.7234 96.6365 48.8699 95.6232 46.684C94.5971 44.4981 94.084 42.0693 94.084 39.372C94.084 36.4447 94.5971 33.7858 95.6232 31.3953C96.6493 29.0049 97.9705 26.5761 99.5995 24.109L111.541 6.3404H125.702L113.529 23.2014L113.324 23.5465C113.786 23.3675 114.35 23.2269 115.004 23.1247C115.658 23.0352 116.261 22.984 116.813 22.984C118.955 22.984 121.007 23.3675 122.983 24.1345C124.958 24.9015 126.677 25.9881 128.152 27.407C129.614 28.8259 130.794 30.5133 131.679 32.4947C132.551 34.4889 133 36.6748 133 39.0908ZM121.328 39.372C121.328 37.1478 120.622 35.2942 119.224 33.8369C117.813 32.3796 115.953 31.6382 113.606 31.6382C111.259 31.6382 109.373 32.3541 107.924 33.7986C106.475 35.2431 105.743 37.1222 105.743 39.4359C105.743 41.5707 106.449 43.4115 107.847 44.9455C109.258 46.4794 111.143 47.2464 113.529 47.2464C115.864 47.2464 117.749 46.5306 119.186 45.0861C120.61 43.6416 121.328 41.7369 121.328 39.372Z" fill="white"/>
</svg>
