<svg width="115" height="115" viewBox="0 0 115 115" fill="none" xmlns="http://www.w3.org/2000/svg">
<rect x="55.9976" y="57.3496" width="56" height="56" transform="rotate(-179.468 55.9976 57.3496)" fill="#83B7FF"/>
<path fill-rule="evenodd" clip-rule="evenodd" d="M79.3851 72.832H115L86.6159 114.832H51.0005L79.3851 72.832Z" fill="#FFDF00"/>
<path fill-rule="evenodd" clip-rule="evenodd" d="M56 102C80.8528 102 101 81.8528 101 57C101 32.1472 80.8528 12 56 12C31.1472 12 11 32.1472 11 57C11 81.8528 31.1472 102 56 102Z" fill="#1F232D"/>
<path fill-rule="evenodd" clip-rule="evenodd" d="M22.4541 48.5092C23.3769 44.641 29.1652 40.8146 38.8974 38.3675C52.3084 34.9955 68.951 35.3125 79.5273 38.7643C69.6125 36.5115 53.9497 37.0455 40.2958 40.4785C31.6859 42.6437 25.5006 45.5528 22.4541 48.5092C22.4541 48.5092 25.5006 45.5528 22.4541 48.5092" fill="white"/>
<path fill-rule="evenodd" clip-rule="evenodd" d="M31.0547 49.2905C31.6994 46.6312 35.7434 44.0006 42.5427 42.3182C51.9118 39.9998 63.5385 40.2177 70.9277 42.591C64.0012 41.0421 53.0582 41.4095 43.5197 43.7697C37.5041 45.2579 33.183 47.2582 31.0547 49.2905C31.0547 49.2905 33.183 47.2582 31.0547 49.2905" fill="white"/>
<path fill-rule="evenodd" clip-rule="evenodd" d="M89.3573 60.2373C91.305 66.042 84.6486 72.3602 71.3156 76.0848C62.1017 78.6586 51.5119 79.4877 41.9995 78.7341C50.142 78.5179 58.9997 77.2747 67.203 74.9837C81.0282 71.1215 89.2143 65.3369 89.3573 60.2373C89.3573 60.2373 89.2143 65.3369 89.3573 60.2373" fill="white"/>
<path fill-rule="evenodd" clip-rule="evenodd" d="M82.414 60.2373C83.8191 64.5913 79.0176 69.3295 69.4006 72.1233C62.7545 74.0532 55.1159 74.6751 48.2544 74.1099C54.128 73.9479 60.5169 73.016 66.4344 71.2974C76.4063 68.4006 82.3112 64.062 82.414 60.2373C82.414 60.2373 82.3112 64.062 82.414 60.2373" fill="white"/>
<path fill-rule="evenodd" clip-rule="evenodd" d="M38.7425 49.29L36.825 55.8416L36.6892 56.3056C36.0921 58.1433 35.6608 58.7374 33.4035 58.7374L31.7351 58.7555L29.939 58.7374C27.3021 58.6812 27.3372 58.0874 27.9373 55.7676L29.8332 49.29H25.814L23.5921 56.8811C22.2014 61.6324 25.0484 61.7811 29.2458 61.7811C30.3348 61.7811 31.4382 61.7992 32.5269 61.7992C36.4276 61.7992 39.2833 61.2429 40.5054 57.0665L40.7173 56.3426L42.7815 49.29H38.7425Z" fill="white"/>
<path fill-rule="evenodd" clip-rule="evenodd" d="M41.6578 57.7705L41.4414 58.5063C40.6194 61.3027 42.1492 61.5972 44.6289 61.7439C45.4995 61.7992 46.4062 61.7992 47.2933 61.7992C49.0082 61.7992 50.7139 61.7623 52.4559 61.6708C55.5562 61.4498 57.1377 60.8981 58.0244 57.881C58.9603 54.6988 57.329 54.1466 54.2736 54.1466C53.3868 54.1466 52.5248 54.1284 51.6379 54.1284L48.968 54.0914C48.0722 54.0545 46.6544 54.1835 47.0061 52.9876C47.2225 52.2518 48.0145 52.1046 48.7348 52.0677C49.7708 52.0311 50.7925 51.9759 51.8172 51.9759C52.448 51.9759 53.0983 51.9759 53.7434 51.9941C54.6195 52.0311 55.1517 52.2336 54.9403 53.1532H58.8624C59.0697 52.3805 59.3385 51.5342 59.1161 50.8169C58.5974 49.3636 56.7892 49.3454 55.178 49.3267L52.39 49.29C50.8724 49.29 47.8906 49.3085 46.3885 49.6579C44.153 50.1547 43.4303 51.4055 42.8949 53.2267C42.2189 55.5266 42.6883 56.6117 45.2218 56.7774C47.3718 56.906 49.5796 56.906 51.7674 56.906H52.4178C53.285 56.906 54.2435 56.9981 53.9515 57.9915C53.6431 59.04 52.7618 59.0215 51.8639 59.0585C50.9409 59.1136 50.0485 59.132 49.1614 59.132C48.5306 59.132 47.9054 59.1136 47.2746 59.1136C46.3789 59.0769 45.2302 59.0951 45.56 57.973C45.5818 57.8992 45.5978 57.8441 45.5998 57.7705H41.6578Z" fill="white"/>
<path fill-rule="evenodd" clip-rule="evenodd" d="M82.0754 50.072H82.4606V47.9938H83.4363V47.7266H81.0908V47.9938H82.0754V50.072Z" fill="white"/>
<path fill-rule="evenodd" clip-rule="evenodd" d="M83.9921 50.072L84.6724 48.1673V50.072H85.0003V47.7266H84.5452L83.8271 49.7214L83.1095 47.7266H82.6548V50.072H82.9831V48.1673L83.6634 50.072H83.9921Z" fill="white"/>
<path fill-rule="evenodd" clip-rule="evenodd" d="M65.4549 49.29H61.7545L58.4185 61.7992H62.1186L65.4549 49.29Z" fill="white"/>
<path fill-rule="evenodd" clip-rule="evenodd" d="M63.549 57.7705L63.3326 58.5063C62.5104 61.3027 64.0404 61.5972 66.5197 61.7439C67.3906 61.7992 68.297 61.7992 69.1844 61.7992C70.8992 61.7992 72.6052 61.7623 74.3468 61.6708C77.4471 61.4498 79.0286 60.8981 79.9152 57.881C80.8513 54.6988 79.2196 54.1466 76.1648 54.1466C75.2777 54.1466 74.4157 54.1284 73.5291 54.1284L70.859 54.0914C69.9633 54.0545 68.5457 54.1835 68.8974 52.9876C69.1133 52.2518 69.9061 52.1046 70.6261 52.0677C71.6621 52.0311 72.6834 51.9759 73.7082 51.9759C74.3391 51.9759 74.9892 51.9759 75.6348 51.9941C76.5104 52.0311 77.0425 52.2336 76.8314 53.1532H80.7532C80.9607 52.3805 81.2298 51.5342 81.0072 50.8169C80.4885 49.3636 78.6798 49.3454 77.0693 49.3267L74.2812 49.29C72.7631 49.29 69.7818 49.3085 68.2798 49.6579C66.0446 50.1547 65.3215 51.4055 64.7863 53.2267C64.1105 55.5266 64.5797 56.6117 67.1129 56.7774C69.2629 56.906 71.4703 56.906 73.6584 56.906H74.3087C75.176 56.906 76.1344 56.9981 75.8426 57.9915C75.5338 59.04 74.6529 59.0215 73.7551 59.0585C72.8321 59.1136 71.94 59.132 71.0529 59.132C70.4219 59.132 69.7967 59.1136 69.1662 59.1136C68.27 59.0769 67.1218 59.0951 67.4514 57.973C67.4729 57.8992 67.4892 57.8441 67.4911 57.7705H63.549Z" fill="white"/>
</svg>
