<svg width="1295" height="247" viewBox="0 0 1295 247" fill="none" xmlns="http://www.w3.org/2000/svg">
<path d="M81.1925 243.175H0V16.8916H81.1925C118.764 16.8916 147.951 27.3028 168.753 48.1251C189.768 68.9475 200.275 96.2503 200.275 130.034C200.275 163.817 189.768 191.12 168.753 211.942C147.951 232.764 118.764 243.175 81.1925 243.175ZM133.41 181.983C145.297 169.447 151.241 152.131 151.241 130.034C151.241 107.936 145.297 90.726 133.41 78.4026C121.736 65.8667 103.905 59.5987 79.9189 59.5987H46.4867V200.468H79.9189C103.905 200.468 121.736 194.307 133.41 181.983Z" fill="white"/>
<path d="M276.23 46.8503C271.135 51.9497 264.555 54.4994 256.489 54.4994C248.423 54.4994 241.842 51.9497 236.748 46.8503C231.653 41.751 229.106 35.2705 229.106 27.409C229.106 19.5475 231.653 13.0671 236.748 7.96773C241.842 2.65591 248.423 0 256.489 0C264.555 0 271.135 2.65591 276.23 7.96773C281.324 13.0671 283.871 19.5475 283.871 27.409C283.871 35.2705 281.324 41.751 276.23 46.8503ZM233.882 243.175V76.1716H279.095V243.175H233.882Z" fill="white"/>
<path d="M379.365 247C333.94 247 309.848 227.665 307.088 188.995H352.938C353.363 195.157 355.804 200.362 360.261 204.612C364.931 208.649 371.724 210.667 380.639 210.667C389.13 210.667 395.604 209.286 400.062 206.524C404.519 203.762 406.748 200.043 406.748 195.369C406.748 190.27 403.564 186.551 397.196 184.214C390.828 181.665 383.08 179.646 373.953 178.159C365.037 176.671 356.016 174.653 346.888 172.103C337.761 169.554 330.013 164.56 323.645 157.124C317.277 149.687 314.093 139.807 314.093 127.484C314.093 111.973 320.249 98.9062 332.56 88.2826C344.872 77.6589 361.004 72.3471 380.957 72.3471C403.67 72.3471 420.545 78.0839 431.583 89.5574C442.621 101.031 448.565 114.098 449.414 128.759H405.793C405.368 123.022 402.927 118.241 398.47 114.417C394.224 110.592 388.281 108.68 380.639 108.68C373.422 108.68 367.797 110.274 363.764 113.461C359.731 116.435 357.714 120.26 357.714 124.934C357.714 130.034 360.898 133.752 367.266 136.089C373.634 138.426 381.276 140.338 390.191 141.826C399.319 143.101 408.34 145.013 417.255 147.563C426.383 150.112 434.131 155.212 440.499 162.861C446.867 170.51 450.051 180.708 450.051 193.457C450.051 208.967 443.683 221.822 430.947 232.021C418.423 242.007 401.229 247 379.365 247Z" fill="white"/>
<path d="M492.218 222.141C476.51 205.355 468.656 184.533 468.656 159.674C468.656 134.814 476.51 114.098 492.218 97.5252C508.138 80.7398 528.197 72.3471 552.396 72.3471C576.169 72.3471 594.849 79.04 608.434 92.4258C622.232 105.812 630.086 120.791 631.996 137.364H585.509C583.811 130.14 579.884 124.191 573.728 119.516C567.573 114.842 560.356 112.505 552.077 112.505C540.19 112.505 530.85 116.86 524.058 125.572C517.265 134.071 513.869 145.438 513.869 159.674C513.869 173.909 517.265 185.383 524.058 194.094C530.85 202.593 540.19 206.843 552.077 206.843C560.356 206.843 567.573 204.505 573.728 199.831C579.884 195.157 583.811 189.207 585.509 181.983H631.996C630.086 198.556 622.232 213.535 608.434 226.921C594.849 240.307 576.169 247 552.396 247C528.197 247 508.138 238.714 492.218 222.141Z" fill="white"/>
<path d="M796.944 221.822C780.812 238.607 759.691 247 733.582 247C707.473 247 686.352 238.607 670.22 221.822C654.088 204.824 646.021 184.108 646.021 159.674C646.021 135.239 654.088 114.629 670.22 97.8439C686.352 80.846 707.473 72.3471 733.582 72.3471C759.691 72.3471 780.812 80.846 796.944 97.8439C813.076 114.629 821.143 135.239 821.143 159.674C821.143 184.108 813.076 204.824 796.944 221.822ZM703.015 124.934C695.162 133.433 691.235 145.013 691.235 159.674C691.235 174.334 695.162 185.914 703.015 194.413C711.082 202.912 721.271 207.161 733.582 207.161C745.894 207.161 755.976 202.912 763.83 194.413C771.896 185.914 775.93 174.334 775.93 159.674C775.93 145.013 771.896 133.433 763.83 124.934C755.976 116.435 745.894 112.186 733.582 112.186C721.271 112.186 711.082 116.435 703.015 124.934Z" fill="white"/>
<path d="M914.144 188.676L954.9 76.1716H1001.7L934.841 243.175H892.811L825.947 76.1716H873.707L914.144 188.676Z" fill="white"/>
<path d="M1170.06 172.741H1049.07C1050.55 184.214 1054.8 193.032 1061.8 199.194C1068.81 205.143 1078.04 208.117 1089.51 208.117C1096.72 208.117 1103.2 206.63 1108.93 203.655C1114.87 200.468 1119.12 195.9 1121.66 189.951H1167.2C1162.31 206.949 1152.66 220.76 1138.22 231.383C1124 241.794 1107.34 247 1088.23 247C1063.61 247 1043.44 238.82 1027.74 222.459C1012.03 206.099 1004.17 185.064 1004.17 159.355C1004.17 134.495 1012.03 113.779 1027.74 97.2064C1043.44 80.6335 1063.5 72.3471 1087.91 72.3471C1112.32 72.3471 1132.17 80.6335 1147.45 97.2064C1162.95 113.567 1170.7 134.283 1170.7 159.355L1170.06 172.741ZM1087.59 108.68C1077.41 108.68 1069.02 111.548 1062.44 117.285C1055.86 122.809 1051.62 130.458 1049.71 140.232H1125.48C1123.79 130.671 1119.65 123.022 1113.07 117.285C1106.49 111.548 1098 108.68 1087.59 108.68Z" fill="white"/>
<path d="M1295 74.8968V117.285C1291.82 116.648 1288.84 116.329 1286.08 116.329C1272.71 116.329 1262.63 119.835 1255.84 126.846C1249.26 133.858 1245.97 144.907 1245.97 159.992V243.175H1200.75V76.1716H1242.46V97.8439C1252.02 82.3333 1267.72 74.578 1289.59 74.578L1295 74.8968Z" fill="white"/>
</svg>
