<svg width="83" height="82" viewBox="0 0 83 82" fill="none" xmlns="http://www.w3.org/2000/svg">
<rect width="83" height="82" rx="20" fill="#E11D38"/>
<path d="M70 43.6055C69.7055 44.0586 69.2863 44.2625 68.7426 44.3531C67.4398 44.5457 66.1484 44.8176 64.8457 45.0215C64.4719 45.0781 64.3246 45.2367 64.234 45.5992C63.9961 46.6301 63.7355 47.6496 63.4184 48.6578C63.3051 49.0316 63.3844 49.2355 63.6676 49.4621C64.7098 50.3117 65.7293 51.1727 66.7488 52.0336C67.4738 52.6453 67.5418 53.0078 67.066 53.8348C66.4203 54.9676 65.7746 56.0891 65.1176 57.2219C64.6758 57.9809 64.3133 58.1055 63.475 57.7996C62.2516 57.3578 61.0281 56.9273 59.816 56.4516C59.3516 56.2703 59.0684 56.293 58.7172 56.7008C58.0602 57.4484 57.3352 58.1395 56.5988 58.8191C56.3156 59.0797 56.259 59.2836 56.3949 59.6461C56.8934 60.9262 57.3465 62.2289 57.8223 63.5203C58.1055 64.3133 57.9695 64.6984 57.2332 65.1176C56.0551 65.7973 54.8883 66.477 53.6988 67.1453C53.0305 67.5191 52.6113 67.4398 52.1129 66.8508C51.1953 65.7633 50.2891 64.6871 49.3941 63.5883C49.1902 63.3391 49.0316 63.3164 48.7258 63.3957C47.6836 63.7016 46.6187 63.9734 45.5652 64.234C45.2594 64.3133 45.0895 64.4039 45.0328 64.7551C44.8176 66.1484 44.557 67.5418 44.2965 68.9352C44.1605 69.6941 43.8207 69.9773 43.073 69.9773C41.691 69.9887 40.3203 69.9887 38.9383 69.9773C38.1793 69.9773 37.8508 69.6828 37.7148 68.9352C37.4656 67.5418 37.1938 66.1598 36.9785 64.7551C36.9219 64.4039 36.7633 64.302 36.4574 64.234C35.3926 63.9734 34.3391 63.7016 33.2969 63.3844C32.991 63.2938 32.8211 63.3391 32.6285 63.577C31.7449 64.6531 30.8387 65.718 29.9437 66.7941C29.3887 67.4512 29.0035 67.5305 28.2672 67.1113C27.0891 66.4316 25.9109 65.752 24.7441 65.0723C24.0531 64.6645 23.9172 64.2793 24.2004 63.509C24.6762 62.1949 25.1406 60.8809 25.6391 59.5781C25.7637 59.2609 25.7184 59.0797 25.4691 58.8531C24.6762 58.1055 23.8945 57.3352 23.1469 56.5309C22.8977 56.2703 22.7164 56.259 22.4105 56.3723C21.1078 56.8594 19.7938 57.3352 18.4797 57.8109C17.7207 58.0828 17.3242 57.9469 16.9164 57.2559C16.2367 56.0777 15.557 54.9109 14.8773 53.7328C14.4582 53.0078 14.5488 52.6227 15.2059 52.0676C16.248 51.1953 17.2789 50.3117 18.3324 49.4508C18.6156 49.2129 18.6949 49.0203 18.5816 48.6465C18.2758 47.6383 18.0039 46.6188 17.766 45.5879C17.6754 45.2254 17.5395 45.0555 17.1543 44.9988C15.7723 44.7836 14.4016 44.523 13.0309 44.2852C12.2832 44.1492 12 43.8094 12 43.0504C12 41.691 12 40.3316 12 38.9723C12 38.168 12.2719 37.8395 13.0535 37.6922C14.4242 37.443 15.7949 37.1938 17.177 36.9785C17.5281 36.9219 17.6754 36.7746 17.7547 36.4348C18.0039 35.3699 18.2758 34.3164 18.593 33.2742C18.6836 32.957 18.627 32.7984 18.3891 32.6059C17.3129 31.7223 16.248 30.816 15.1719 29.9211C14.5262 29.3773 14.4469 28.9922 14.866 28.2445C15.5344 27.0777 16.1914 25.9223 16.8711 24.7668C17.2902 24.0418 17.6867 23.9059 18.4684 24.1891C19.7824 24.6648 21.0965 25.1293 22.3992 25.6277C22.7164 25.7523 22.8863 25.6957 23.1242 25.4465C23.8719 24.6535 24.6535 23.8832 25.4465 23.1242C25.673 22.909 25.7297 22.7504 25.6164 22.4445C25.118 21.1191 24.6422 19.7937 24.1551 18.4684C23.8832 17.7094 24.0305 17.3129 24.7215 16.9051C25.8996 16.2254 27.0664 15.5457 28.2559 14.8773C28.9582 14.4695 29.366 14.5488 29.8871 15.1605C30.7707 16.2141 31.677 17.2563 32.5379 18.3324C32.7984 18.6496 33.025 18.6836 33.3988 18.559C34.3504 18.2645 35.3133 17.9926 36.2875 17.7887C36.7406 17.6867 36.9332 17.5055 37.0012 17.0523C37.1938 15.7836 37.4543 14.5262 37.6355 13.2574C37.7375 12.7137 37.9414 12.2945 38.3945 12C40.1277 12 41.8723 12 43.6055 12C44.0586 12.2945 44.2625 12.7137 44.3418 13.2461C44.5457 14.5715 44.8176 15.8742 45.0215 17.1996C45.0781 17.5281 45.2027 17.6641 45.5312 17.7434C46.5961 18.0039 47.6496 18.2758 48.6918 18.5816C49.0203 18.6836 49.2016 18.627 49.4055 18.3664C50.2891 17.2902 51.1953 16.2254 52.0902 15.1492C52.6113 14.5262 53.0191 14.4469 53.7215 14.8434C54.8996 15.5117 56.0777 16.1914 57.2445 16.8711C57.9582 17.2902 58.0941 17.6754 57.7996 18.4797C57.3352 19.7711 56.8707 21.0625 56.3836 22.3539C56.259 22.6824 56.293 22.875 56.5648 23.1242C57.3465 23.8605 58.1055 24.6195 58.8418 25.4012C59.091 25.673 59.2836 25.707 59.6121 25.5824C60.8922 25.0953 62.1949 24.6309 63.4863 24.1664C64.302 23.8719 64.6758 24.0078 65.1176 24.7781C65.7746 25.9223 66.443 27.0551 67.1 28.2105C67.5305 28.9695 67.4625 29.3547 66.7828 29.9211C65.7293 30.8047 64.6758 31.6996 63.6109 32.5719C63.3617 32.7758 63.2938 32.957 63.3957 33.2855C63.7129 34.3164 63.9734 35.3473 64.2227 36.3895C64.302 36.718 64.4039 36.8879 64.7777 36.9445C66.1031 37.1484 67.4059 37.4316 68.7312 37.6355C69.275 37.7148 69.6828 37.9188 69.9773 38.3719C70 40.1277 70 41.8723 70 43.6055ZM42.6879 68.2781C42.9598 66.7602 43.2316 65.2648 43.4809 63.7582C43.5828 63.1578 43.9 62.852 44.5004 62.716C45.8711 62.3875 47.2418 62.0363 48.5898 61.6285C49.5187 61.3566 49.768 61.3906 50.4023 62.1496C51.3199 63.2484 52.2375 64.3473 53.1777 65.4801C54.152 64.9137 55.1148 64.3586 56.1004 63.7922C55.568 62.3422 55.0582 60.9262 54.5484 59.5102C54.2879 58.7965 54.3898 58.5359 54.9336 58.0148C55.9531 57.0293 56.9613 56.0437 57.9355 55.0242C58.5586 54.3672 58.7625 54.2879 59.6121 54.5938C60.9941 55.0922 62.3648 55.5906 63.7922 56.1117C64.3586 55.1262 64.9137 54.1746 65.4801 53.1891C64.302 52.2035 63.1465 51.2293 61.9797 50.2664C61.4926 49.8699 61.3793 49.4168 61.5605 48.8164C61.9684 47.4117 62.3422 45.9844 62.7047 44.5684C62.8973 43.832 63.0672 43.6281 63.8148 43.4922C65.2988 43.2316 66.7828 42.9711 68.2668 42.6992C68.2668 41.5551 68.2668 40.4449 68.2668 39.3121C66.7602 39.0516 65.2762 38.7797 63.7922 38.5305C63.1691 38.4285 62.852 38.1113 62.7047 37.4883C62.3875 36.1289 62.0363 34.7809 61.6398 33.4441C61.3453 32.4586 61.368 32.2547 62.1609 31.5863C63.2598 30.6687 64.3586 29.7512 65.4688 28.8109C64.9703 27.95 64.4719 27.123 64.0188 26.2848C63.8488 25.9789 63.7016 25.8996 63.3617 26.0355C62.0816 26.534 60.7789 26.9758 59.4875 27.4629C58.8984 27.6895 58.4566 27.5535 58.0262 27.1004C57.018 26.0355 55.9758 24.9934 54.9109 23.9852C54.4578 23.5547 54.2992 23.1129 54.5258 22.5238C54.7297 22.0027 54.9223 21.459 55.1148 20.9379C55.4434 20.043 55.7605 19.1367 56.1004 18.2191C55.1035 17.6414 54.1406 17.0977 53.1777 16.5312C52.1695 17.732 51.1953 18.8762 50.2438 20.043C49.8586 20.5074 49.4168 20.6207 48.8391 20.4508C47.3777 20.0316 45.8938 19.6465 44.4211 19.2727C43.9 19.1367 43.5941 18.8535 43.4922 18.3324C43.4469 18.0945 43.4129 17.8453 43.3676 17.6074C43.141 16.316 42.9145 15.0246 42.6879 13.7332C41.5324 13.7332 40.4449 13.7332 39.3121 13.7332C39.0516 15.2285 38.7797 16.7012 38.5191 18.1852C38.3832 18.9215 38.168 19.1141 37.4543 19.3066C36.0836 19.6465 34.7129 19.9977 33.3648 20.3941C32.4926 20.6434 32.232 20.6094 31.643 19.907C30.7141 18.7969 29.7852 17.6754 28.8223 16.5312C27.848 17.0977 26.8852 17.6414 25.8883 18.2191C26.398 19.6352 26.9078 21.0059 27.4062 22.3879C27.7121 23.2375 27.6328 23.4641 26.9871 24.0758C26.0129 24.9934 25.0613 25.9336 24.1437 26.9078C23.4187 27.6668 23.2488 27.7461 22.2746 27.3949C20.9379 26.9078 19.5898 26.4094 18.2078 25.8996C17.6301 26.8965 17.0863 27.848 16.5199 28.8336C17.698 29.8191 18.8648 30.782 20.009 31.7562C20.5754 32.232 20.6207 32.5379 20.4055 33.2516C20.009 34.6449 19.6352 36.0496 19.284 37.4543C19.1027 38.1906 18.9215 38.4059 18.1852 38.5305C16.7012 38.8023 15.2285 39.0629 13.7332 39.3234C13.7332 40.4676 13.7332 41.5664 13.7332 42.6992C14.4922 42.8352 15.2398 42.9598 15.9762 43.0957C16.7238 43.2316 17.4602 43.3789 18.2078 43.4922C18.8309 43.5828 19.148 43.9227 19.284 44.5344C19.5898 45.8598 19.9184 47.1738 20.3035 48.4652C20.6434 49.5867 20.632 49.7453 19.7258 50.5043C18.6609 51.3992 17.5848 52.2941 16.5086 53.1891C17.007 54.0613 17.5055 54.8883 17.9586 55.7266C18.1285 56.0438 18.2871 56.1004 18.627 55.9758C19.8957 55.4887 21.1758 55.0355 22.4445 54.5711C23.1922 54.2992 23.4414 54.3898 23.9965 54.9563C24.9934 55.9871 26.0016 56.9953 27.0324 57.9922C27.5988 58.5359 27.6895 58.7852 27.4289 59.5441C26.9645 60.8355 26.4887 62.127 26.0355 63.4297C25.9902 63.5656 26.0129 63.8488 26.0922 63.8941C26.9871 64.4379 27.9047 64.959 28.8223 65.4801C29.8305 64.2793 30.8047 63.1238 31.7676 61.9684C32.1187 61.5379 32.5379 61.3906 33.0703 61.5266C34.5996 61.9344 36.1176 62.3422 37.6469 62.75C38.1113 62.8746 38.3945 63.1578 38.4965 63.6336C38.5531 63.8941 38.5871 64.1547 38.6324 64.4152C38.859 65.7066 39.0855 66.998 39.3121 68.2895C40.4676 68.2781 41.5664 68.2781 42.6879 68.2781Z" fill="white"/>
<path d="M60.541 30.4302C60.3031 29.388 59.4648 28.7763 58.4113 28.9688C57.0745 29.2181 55.7605 29.5466 54.4238 29.7845C51.8523 30.2489 49.3261 30.8493 47.1738 32.4466C46.8113 32.7185 46.5394 32.6392 46.1769 32.4239C42.8124 30.4981 39.3574 30.3962 36.0042 32.3446C32.6398 34.3044 30.9745 37.3517 31.0085 41.2599C31.0085 41.6337 30.9066 41.8263 30.5894 42.0075C28.3577 43.2763 26.1374 44.5677 23.9285 45.8478C22.3652 46.754 22.0027 48.17 22.9089 49.7333C23.396 50.5603 23.8718 51.3985 24.3589 52.2255C25.3105 53.8568 26.6925 54.2419 28.3238 53.3017C30.4761 52.0556 32.6398 50.8208 34.7808 49.5521C35.1886 49.3142 35.4605 49.3028 35.8796 49.5521C37.3976 50.5036 39.0855 50.9567 40.8753 50.9794C41.4644 50.9907 41.8269 50.6849 41.8495 50.1864C41.8722 49.688 41.555 49.3595 40.966 49.2915C40.6827 49.2575 40.3995 49.2689 40.1163 49.2349C39.0515 49.1216 38.0433 48.8384 37.0464 48.2607C41.1472 45.8931 45.1687 43.5708 49.3261 41.1692C49.2921 41.5997 49.2921 41.8942 49.2355 42.1888C48.7484 44.9868 47.2531 47.0712 44.7269 48.4079C44.0812 48.7478 43.8886 49.1782 44.1605 49.6653C44.4097 50.1298 44.8968 50.2318 45.4745 49.9146C49.0656 47.9888 50.9234 44.9755 51.0027 40.9087C51.014 40.3083 51.2179 40.0591 51.671 39.7872C52.6792 39.2095 53.812 38.711 54.6163 37.9181C56.5421 36.0036 58.3093 33.9306 60.1331 31.9142C60.507 31.529 60.6656 31.0192 60.541 30.4302ZM36.4687 34.0438C39.1761 32.2993 42.0195 32.254 45.0214 33.6813C40.8867 36.0716 36.8425 38.4052 32.6851 40.8067C32.8663 37.8388 34.0898 35.5845 36.4687 34.0438ZM27.123 52.0329C26.7038 52.2482 26.2847 52.1575 26.0355 51.7497C25.4124 50.7189 24.812 49.6767 24.2343 48.6232C23.9851 48.1814 24.121 47.7622 24.5402 47.4903C25.0952 47.1392 25.673 46.8333 26.296 46.4708C27.1796 48.0001 28.0406 49.4841 28.9242 51.0134C28.3011 51.3646 27.7234 51.7271 27.123 52.0329ZM30.3855 50.1638C30.091 49.654 28.6523 47.1392 28.641 47.1392C28.3464 46.6407 28.0745 46.1536 27.7574 45.6099C35.0527 41.3958 42.3027 37.2157 49.6093 33.0017C49.9152 33.5341 51.9429 37.0345 52.2488 37.5556C44.9535 41.747 37.7148 45.9384 30.3855 50.1638ZM53.6648 36.5927C52.8152 35.1314 52.0109 33.7267 51.1613 32.254C52.5206 31.9595 53.8347 31.6763 55.1261 31.3931C55.5452 32.1181 55.9417 32.8091 56.3835 33.5907C55.5113 34.5423 54.605 35.5505 53.6648 36.5927ZM57.573 32.254C57.3238 31.8349 57.0972 31.4724 56.8367 31.0306C57.5617 30.8833 58.1847 30.7474 58.8078 30.6228C58.8417 30.6794 58.8644 30.736 58.8984 30.7927C58.4792 31.2458 58.0601 31.7103 57.573 32.254Z" fill="white"/>
</svg>
