<svg width="168" height="168" viewBox="0 0 168 168" fill="none" xmlns="http://www.w3.org/2000/svg">
<g clip-path="url(#clip0)" filter="url(#filter0_d)">
<path d="M144.943 0H23.0572C12.569 0 4.04463 8.52679 4.04463 19.0625V45.7143H4C4.04463 45.8929 4.04463 46.0268 4.04463 46.25V55.1786C4.04463 55.2679 4.04463 55.4018 4.04463 55.4911V110.536C4.04463 121.071 12.569 129.554 23.1018 129.598H61.1716V137.232H57.378C51.0851 137.232 45.9526 142.366 45.9526 148.661V156.295C45.9526 158.393 47.6485 160.089 49.7462 160.089H118.298C120.396 160.089 122.092 158.393 122.092 156.295V148.661C122.092 142.366 116.96 137.232 110.667 137.232H106.873V129.598H141.149H148.558C148.603 129.554 148.692 129.509 148.736 129.509V129.196C157.618 127.366 163.955 119.598 163.955 110.536V19.0625C163.955 8.52679 155.476 0 144.943 0ZM110.667 144.777C112.764 144.777 114.46 146.473 114.46 148.571V152.366H53.5397V148.571C53.5397 146.473 55.2357 144.777 57.3333 144.777H110.667ZM68.7587 137.143V129.509H99.2413V137.143H68.7587ZM156.368 110.491C156.368 116.786 151.236 121.92 144.943 121.92H23.0572C16.7643 121.92 11.6318 116.786 11.6318 110.491V106.696H156.368V110.491ZM156.368 99.0625H11.6318V19.0625C11.6318 12.7679 16.7643 7.63393 23.0572 7.63393H144.943C151.236 7.63393 156.368 12.7679 156.368 19.0625V99.0625Z" fill="#464444"/>
<path d="M26.8955 57.1429H49.7462C53.9415 57.1429 57.378 53.75 57.378 49.5089V34.2857C57.378 30.0893 53.9861 26.6518 49.7462 26.6518H26.8955C22.7002 26.6518 19.2637 30.0447 19.2637 34.2857V49.5089C19.2637 53.75 22.6556 57.1429 26.8955 57.1429ZM26.8955 34.2857H49.7462V49.5089H26.8955V34.2857Z" fill="#2B75FF"/>
<path d="M23.0573 72.366H26.8508C28.9485 72.366 30.6444 70.6696 30.6444 68.5714C30.6444 66.4732 28.9485 64.7767 26.8508 64.7767H23.0573C20.9596 64.7767 19.2637 66.4732 19.2637 68.5714C19.2637 70.6696 20.9596 72.366 23.0573 72.366Z" fill="#464444"/>
<path d="M42.1144 64.7767C40.0168 64.7767 38.3208 66.4732 38.3208 68.5714C38.3208 70.6696 40.0168 72.366 42.1144 72.366H53.5398C55.6374 72.366 57.3334 70.6696 57.3334 68.5714C57.3334 66.4732 55.6374 64.7767 53.5398 64.7767H42.1144Z" fill="#464444"/>
<path d="M23.0573 87.6339H53.5398C55.6375 87.6339 57.3334 85.9375 57.3334 83.8393C57.3334 81.741 55.6375 80.0446 53.5398 80.0446H23.0573C20.9596 80.0446 19.2637 81.741 19.2637 83.8393C19.2637 85.8928 20.9596 87.6339 23.0573 87.6339Z" fill="#2B75FF"/>
<path d="M72.5969 57.1429H95.4477C99.6429 57.1429 103.079 53.75 103.079 49.5089V34.2857C103.079 30.0893 99.6875 26.6518 95.4477 26.6518H72.5969C68.4016 26.6518 64.9651 30.0447 64.9651 34.2857V49.5089C64.9651 53.75 68.357 57.1429 72.5969 57.1429ZM72.5969 34.2857H95.4477V49.5089H72.5969V34.2857Z" fill="#2B75FF"/>
<path d="M68.7587 72.366H72.5523C74.6499 72.366 76.3458 70.6696 76.3458 68.5714C76.3458 66.4732 74.6499 64.7767 72.5523 64.7767H68.7587C66.661 64.7767 64.9651 66.4732 64.9651 68.5714C64.9651 70.6696 66.661 72.366 68.7587 72.366Z" fill="#464444"/>
<path d="M87.8158 64.7767C85.7182 64.7767 84.0222 66.4732 84.0222 68.5714C84.0222 70.6696 85.7182 72.366 87.8158 72.366H99.2412C101.339 72.366 103.035 70.6696 103.035 68.5714C103.035 66.4732 101.339 64.7767 99.2412 64.7767H87.8158Z" fill="#464444"/>
<path d="M68.7587 87.6339H99.2412C101.339 87.6339 103.035 85.9375 103.035 83.8393C103.035 81.741 101.339 80.0446 99.2412 80.0446H68.7587C66.661 80.0446 64.9651 81.741 64.9651 83.8393C64.9651 85.8928 66.661 87.6339 68.7587 87.6339Z" fill="#464444"/>
<path d="M118.299 57.1429H141.149C145.345 57.1429 148.781 53.75 148.781 49.5089V34.2857C148.781 30.0893 145.389 26.6518 141.149 26.6518H118.299C114.103 26.6518 110.667 30.0447 110.667 34.2857V49.5089C110.667 53.75 114.103 57.1429 118.299 57.1429ZM118.299 34.2857H141.149V49.5089H118.299V34.2857Z" fill="#2B75FF"/>
<path d="M114.46 72.366H118.254C120.352 72.366 122.048 70.6696 122.048 68.5714C122.048 66.4732 120.352 64.7767 118.254 64.7767H114.46C112.363 64.7767 110.667 66.4732 110.667 68.5714C110.667 70.6696 112.363 72.366 114.46 72.366Z" fill="#464444"/>
<path d="M133.517 64.7767C131.42 64.7767 129.724 66.4732 129.724 68.5714C129.724 70.6696 131.42 72.366 133.517 72.366H144.943C147.04 72.366 148.736 70.6696 148.736 68.5714C148.736 66.4732 147.04 64.7767 144.943 64.7767H133.517Z" fill="#464444"/>
<path d="M114.46 87.6339H144.943C147.041 87.6339 148.736 85.9375 148.736 83.8393C148.736 81.741 147.041 80.0446 144.943 80.0446H114.46C112.363 80.0446 110.667 81.741 110.667 83.8393C110.667 85.8928 112.363 87.6339 114.46 87.6339Z" fill="#2B75FF"/>
</g>
<defs>
<filter id="filter0_d" x="0" y="0" width="168" height="168" filterUnits="userSpaceOnUse" color-interpolation-filters="sRGB">
<feFlood flood-opacity="0" result="BackgroundImageFix"/>
<feColorMatrix in="SourceAlpha" type="matrix" values="0 0 0 0 0 0 0 0 0 0 0 0 0 0 0 0 0 0 127 0"/>
<feOffset dy="4"/>
<feGaussianBlur stdDeviation="2"/>
<feColorMatrix type="matrix" values="0 0 0 0 0 0 0 0 0 0 0 0 0 0 0 0 0 0 0.25 0"/>
<feBlend mode="normal" in2="BackgroundImageFix" result="effect1_dropShadow"/>
<feBlend mode="normal" in="SourceGraphic" in2="effect1_dropShadow" result="shape"/>
</filter>
<clipPath id="clip0">
<rect width="160" height="160" fill="white" transform="translate(4)"/>
</clipPath>
</defs>
</svg>
