<svg width="34" height="34" viewBox="0 0 34 34" fill="none" xmlns="http://www.w3.org/2000/svg">
<path d="M17 0C7.62344 0 0 7.62344 0 17C0 26.3766 7.62344 34 17 34C26.3766 34 34 26.3766 34 17C34 7.62344 26.3766 0 17 0ZM22.2527 18.0027L15.1672 25.0816C14.8883 25.3605 14.5297 25.5 14.1645 25.5C13.7992 25.5 13.4406 25.3605 13.1617 25.0816C12.6105 24.5305 12.6105 23.634 13.1617 23.0762L19.2445 16.9934L13.1617 10.9105C12.6105 10.3594 12.6105 9.46289 13.1617 8.90508C13.7129 8.34727 14.6094 8.35391 15.1672 8.90508L22.2527 15.9906C22.8039 16.5551 22.8039 17.4449 22.2527 18.0027Z" fill="white"/>
</svg>
