<svg width="120" height="109" viewBox="0 0 120 109" fill="none" xmlns="http://www.w3.org/2000/svg">
<path fill-rule="evenodd" clip-rule="evenodd" d="M91.6154 57H56L84.3846 105H120L91.6154 57Z" fill="url(#paint0_linear)"/>
<path fill-rule="evenodd" clip-rule="evenodd" d="M19.0657 57.5002C29.5956 68.03 46.5492 68.1486 56.9328 57.765C67.3164 47.3814 67.1978 30.4278 56.668 19.898C46.1382 9.36814 29.1845 9.24958 18.8009 19.6332C8.41733 30.0167 8.53589 46.9704 19.0657 57.5002Z" fill="url(#paint1_linear)"/>
<path fill-rule="evenodd" clip-rule="evenodd" d="M63 108.167C87.8528 108.167 108 88.0131 108 63.1522C108 38.2914 87.8528 18.1377 63 18.1377C38.1472 18.1377 18 38.2914 18 63.1522C18 88.0131 38.1472 108.167 63 108.167Z" fill="#1F232D"/>
<path d="M62.4014 36.7984C76.3047 36.7984 87.6184 48.1353 87.6184 62.0669C87.6184 75.9985 76.3047 87.3354 62.4014 87.3354C48.4982 87.3354 37.1844 75.9985 37.1844 62.0669C37.1844 48.1353 48.4982 36.7984 62.4014 36.7984ZM62.4014 36C48.06 36 36.3877 47.6563 36.3877 62.0669C36.3877 76.4376 48.0202 88.1338 62.4014 88.1338C76.7429 88.1338 88.4152 76.4776 88.4152 62.0669C88.4152 47.6563 76.7429 36 62.4014 36Z" fill="white"/>
<path fill-rule="evenodd" clip-rule="evenodd" d="M47.0234 80.5498C47.0234 80.5498 66.8226 65.1412 69.0136 51.0898C69.0136 51.0898 77.8973 62.5864 78.5347 74.9213C78.5347 74.9213 72.6787 58.6744 70.3681 58.4349C61.9226 71.4484 59.6519 72.3665 47.0234 80.5498Z" fill="white"/>
<path fill-rule="evenodd" clip-rule="evenodd" d="M74.5518 57.5959L78.655 52.4863C78.655 52.4863 86.7021 72.5654 98.8525 79.152C98.8525 79.152 85.7859 74.721 78.655 57.5161L76.1851 60.51C75.5078 59.0729 75.2688 58.8733 74.5518 57.5959Z" fill="white"/>
<path fill-rule="evenodd" clip-rule="evenodd" d="M19.9351 80.4701C19.9351 80.4701 39.535 76.2787 47.5423 62.4668C47.5423 62.4668 51.287 70.6102 53.9561 71.688C53.9561 71.688 52.7212 73.644 51.4464 74.0831C51.4464 74.0831 47.4228 70.3707 46.7057 68.2949C38.8976 76.4383 30.4521 78.7935 19.9351 80.4701Z" fill="white"/>
<path fill-rule="evenodd" clip-rule="evenodd" d="M49.1357 63.6631C51.0878 61.7869 55.3902 57.4358 56.1471 54.9209C56.1471 54.9209 61.1268 60.27 63.5568 61.7071C62.9991 62.5454 62.4414 63.3837 61.8438 64.182C60.6487 63.3837 57.9796 61.4276 57.1032 60.1902C57.1032 60.1902 53.3187 64.5413 50.5699 66.2977C50.0122 65.3397 49.4943 64.4215 49.1357 63.6631Z" fill="white"/>
<path fill-rule="evenodd" clip-rule="evenodd" d="M62.959 38.3153C62.959 38.3153 43.6379 37.2774 40.4907 55.7199C40.4907 55.7199 43.2793 49.6921 48.7769 44.862C52.6809 41.389 58.6167 38.7544 62.959 38.3153Z" fill="white"/>
<defs>
<linearGradient id="paint0_linear" x1="88" y1="57" x2="88" y2="105" gradientUnits="userSpaceOnUse">
<stop stop-color="#03FFE1"/>
<stop offset="1" stop-color="#36CDEE"/>
</linearGradient>
<linearGradient id="paint1_linear" x1="34.2842" y1="4.14988" x2="37.2691" y2="70.2297" gradientUnits="userSpaceOnUse">
<stop stop-color="#FCCA35"/>
<stop offset="1" stop-color="#FF9901"/>
</linearGradient>
</defs>
</svg>
