<svg width="1920" height="1080" viewBox="0 0 1920 1080" fill="none" xmlns="http://www.w3.org/2000/svg">
<g clip-path="url(#clip0)">
<mask id="mask0" mask-type="alpha" maskUnits="userSpaceOnUse" x="-34314" y="-6205" width="67725" height="12905">
<path d="M-30067.9 6500.18H-34314V-5322.46H-30067.9C-28103 -5322.46 -26576.6 -4778.51 -25488.7 -3690.61C-24389.7 -2602.7 -23840.2 -1176.21 -23840.2 588.857C-23840.2 2353.93 -24389.7 3780.42 -25488.7 4868.32C-26576.6 5956.23 -28103 6500.18 -30067.9 6500.18ZM-27337 3303.07C-26715.3 2648.11 -26404.5 1743.37 -26404.5 588.857C-26404.5 -565.654 -26715.3 -1464.84 -27337 -2108.7C-27947.6 -2763.67 -28880 -3091.15 -30134.5 -3091.15H-31882.9V4268.86H-30134.5C-28880 4268.86 -27947.6 3946.93 -27337 3303.07Z" fill="white"/>
<path d="M-19867.9 -3757.21C-20134.4 -3490.79 -20478.5 -3357.57 -20900.3 -3357.57C-21322.2 -3357.57 -21666.3 -3490.79 -21932.7 -3757.21C-22199.2 -4023.64 -22332.4 -4362.22 -22332.4 -4772.96C-22332.4 -5183.7 -22199.2 -5522.28 -21932.7 -5788.71C-21666.3 -6066.24 -21322.2 -6205 -20900.3 -6205C-20478.5 -6205 -20134.4 -6066.24 -19867.9 -5788.71C-19601.5 -5522.28 -19468.3 -5183.7 -19468.3 -4772.96C-19468.3 -4362.22 -19601.5 -4023.64 -19867.9 -3757.21ZM-22082.6 6500.18V-2225.27H-19718.1V6500.18H-22082.6Z" fill="white"/>
<path d="M-14474.2 6700C-16849.8 6700 -18109.8 5689.8 -18254.1 3669.41H-15856.3C-15834.1 3991.34 -15706.4 4263.31 -15473.3 4485.34C-15229.1 4696.26 -14873.9 4801.72 -14407.6 4801.72C-13963.6 4801.72 -13625 4729.56 -13391.9 4585.24C-13158.7 4440.93 -13042.2 4246.66 -13042.2 4002.44C-13042.2 3736.01 -13208.7 3541.74 -13541.7 3419.63C-13874.8 3286.42 -14279.9 3180.96 -14757.3 3103.25C-15223.5 3025.54 -15695.3 2920.08 -16172.7 2786.87C-16650 2653.66 -17055.2 2392.78 -17388.2 2004.24C-17721.3 1615.71 -17887.8 1099.51 -17887.8 455.645C-17887.8 -354.734 -17565.9 -1037.45 -16922 -1592.5C-16278.1 -2147.56 -15434.5 -2425.08 -14391 -2425.08C-13203.1 -2425.08 -12320.6 -2125.35 -11743.4 -1525.9C-11166.1 -926.439 -10855.3 -243.723 -10810.9 522.251H-13092.1C-13114.3 222.522 -13242 -27.252 -13475.1 -227.071C-13697.1 -426.891 -14008 -526.8 -14407.6 -526.8C-14785 -526.8 -15079.2 -443.542 -15290.1 -277.026C-15501.1 -121.611 -15606.5 78.2081 -15606.5 322.432C-15606.5 588.858 -15440 783.126 -15107 905.238C-14773.9 1027.35 -14374.3 1127.26 -13908.1 1204.97C-13430.7 1271.57 -12958.9 1371.48 -12492.7 1504.7C-12015.3 1637.91 -11610.1 1904.34 -11277.1 2303.97C-10944.1 2703.61 -10777.6 3236.46 -10777.6 3902.53C-10777.6 4712.91 -11110.6 5384.52 -11776.7 5917.37C-12431.6 6439.12 -13330.8 6700 -14474.2 6700Z" fill="white"/>
<path d="M-8572.35 5401.17C-9393.83 4524.19 -9804.57 3436.28 -9804.57 2137.46C-9804.57 838.632 -9393.83 -243.723 -8572.35 -1109.61C-7739.78 -1986.59 -6690.73 -2425.08 -5425.21 -2425.08C-4181.89 -2425.08 -3205 -2075.4 -2494.53 -1376.03C-1772.97 -676.665 -1362.23 105.961 -1262.32 971.845H-3693.45C-3782.25 594.408 -3987.62 283.578 -4309.55 39.3544C-4631.49 -204.869 -5008.92 -326.981 -5441.86 -326.981C-6063.52 -326.981 -6551.97 -99.4093 -6907.2 355.735C-7262.43 799.778 -7440.05 1393.69 -7440.05 2137.46C-7440.05 2881.23 -7262.43 3480.69 -6907.2 3935.83C-6551.97 4379.87 -6063.52 4601.9 -5441.86 4601.9C-5008.92 4601.9 -4631.49 4479.78 -4309.55 4235.56C-3987.62 3991.34 -3782.25 3680.51 -3693.45 3303.07H-1262.32C-1362.23 4168.95 -1772.97 4951.58 -2494.53 5650.95C-3205 6350.32 -4181.89 6700 -5425.21 6700C-6690.73 6700 -7739.78 6267.06 -8572.35 5401.17Z" fill="white"/>
<path d="M7364.02 5384.52C6520.34 6261.51 5415.79 6700 4050.36 6700C2684.93 6700 1580.38 6261.51 736.699 5384.52C-106.981 4496.44 -528.823 3414.08 -528.823 2137.46C-528.823 860.834 -106.981 -215.97 736.699 -1092.96C1580.38 -1981.04 2684.93 -2425.08 4050.36 -2425.08C5415.79 -2425.08 6520.34 -1981.04 7364.02 -1092.96C8207.7 -215.97 8629.54 860.834 8629.54 2137.46C8629.54 3414.08 8207.7 4496.44 7364.02 5384.52ZM2451.81 322.432C2041.07 766.474 1835.7 1371.48 1835.7 2137.46C1835.7 2903.43 2041.07 3508.44 2451.81 3952.48C2873.65 4396.53 3406.5 4618.55 4050.36 4618.55C4694.22 4618.55 5221.52 4396.53 5632.26 3952.48C6054.1 3508.44 6265.02 2903.43 6265.02 2137.46C6265.02 1371.48 6054.1 766.474 5632.26 322.432C5221.52 -121.611 4694.22 -343.633 4050.36 -343.633C3406.5 -343.633 2873.65 -121.611 2451.81 322.432Z" fill="white"/>
<path d="M13493.3 3652.75L15624.7 -2225.27H18072.5L14575.6 6500.18H12377.6L8880.79 -2225.27H11378.5L13493.3 3652.75Z" fill="white"/>
<path d="M26877 2820.17H20549.4C20627.1 3419.63 20849.2 3880.33 21215.5 4202.26C21581.8 4513.09 22064.7 4668.5 22664.2 4668.5C23041.6 4668.5 23380.2 4590.79 23679.9 4435.38C23990.8 4268.86 24212.8 4030.19 24346 3719.36H26727.2C26471.8 4607.45 25966.7 5329.02 25211.9 5884.07C24468.1 6428.02 23596.7 6700 22597.6 6700C21309.9 6700 20255.3 6272.61 19433.8 5417.83C18612.3 4563.04 18201.6 3464.04 18201.6 2120.81C18201.6 821.98 18612.3 -260.375 19433.8 -1126.26C20255.3 -1992.14 21304.3 -2425.08 22580.9 -2425.08C23857.5 -2425.08 24895.5 -1992.14 25694.8 -1126.26C26505.1 -271.476 26910.3 810.879 26910.3 2120.81L26877 2820.17ZM22564.3 -526.8C22031.4 -526.8 21592.9 -376.936 21248.8 -77.2068C20904.7 211.421 20682.6 611.06 20582.7 1121.71H24545.8C24457 622.161 24240.5 222.522 23896.4 -77.2068C23552.3 -376.936 23108.2 -526.8 22564.3 -526.8Z" fill="white"/>
<path d="M33411 -2291.87V-77.2068C33244.5 -110.51 33089.1 -127.162 32944.8 -127.162C32245.4 -127.162 31718.1 56.0059 31362.9 422.342C31018.7 788.677 30846.7 1365.93 30846.7 2154.11V6500.18H28482.1V-2225.27H30663.5V-1092.96C31163 -1903.33 31984.5 -2308.52 33127.9 -2308.52L33411 -2291.87Z" fill="white"/>
</mask>
<g mask="url(#mask0)">
<path d="M2034.53 -123.689L1532.26 -484.539L231.999 -182.527L1292.5 545L2034.53 -123.689Z" fill="url(#paint0_linear)"/>
<g filter="url(#filter0_d)">
<circle cx="194.5" cy="151.498" r="257.5" fill="url(#paint1_linear)"/>
</g>
<rect x="1706" y="430.422" width="350.834" height="350.073" rx="35" transform="rotate(-42.1471 1706 430.422)" fill="url(#paint2_linear)"/>
<circle cx="1592.5" cy="241.499" r="68.5" fill="url(#paint3_linear)"/>
</g>
</g>
<defs>
<filter id="filter0_d" x="-73" y="-120.002" width="535" height="535" filterUnits="userSpaceOnUse" color-interpolation-filters="sRGB">
<feFlood flood-opacity="0" result="BackgroundImageFix"/>
<feColorMatrix in="SourceAlpha" type="matrix" values="0 0 0 0 0 0 0 0 0 0 0 0 0 0 0 0 0 0 127 0"/>
<feOffset dy="-4"/>
<feGaussianBlur stdDeviation="5"/>
<feColorMatrix type="matrix" values="0 0 0 0 0 0 0 0 0 0 0 0 0 0 0 0 0 0 0.0832605 0"/>
<feBlend mode="normal" in2="BackgroundImageFix" result="effect1_dropShadow"/>
<feBlend mode="normal" in="SourceGraphic" in2="effect1_dropShadow" result="shape"/>
</filter>
<linearGradient id="paint0_linear" x1="1869.08" y1="-6.03008" x2="419.98" y2="-301.08" gradientUnits="userSpaceOnUse">
<stop stop-color="#4692FF"/>
<stop offset="1" stop-color="#0069FF"/>
</linearGradient>
<linearGradient id="paint1_linear" x1="-161.048" y1="56.906" x2="102.075" y2="390.056" gradientUnits="userSpaceOnUse">
<stop stop-color="#FFAF04"/>
<stop offset="1" stop-color="#FF5D12"/>
</linearGradient>
<linearGradient id="paint2_linear" x1="1818.84" y1="1042.08" x2="1684.79" y2="415.902" gradientUnits="userSpaceOnUse">
<stop stop-color="#5158FF"/>
<stop offset="1" stop-color="#41FF8D"/>
</linearGradient>
<linearGradient id="paint3_linear" x1="1645.12" y1="203.752" x2="1513.85" y2="182.104" gradientUnits="userSpaceOnUse">
<stop stop-color="#FF5175"/>
<stop offset="1" stop-color="#FF6441"/>
</linearGradient>
<clipPath id="clip0">
<rect width="1920" height="1080" fill="white"/>
</clipPath>
</defs>
</svg>
