<svg width="127" height="121" viewBox="0 0 127 121" fill="none" xmlns="http://www.w3.org/2000/svg">
<path fill-rule="evenodd" clip-rule="evenodd" d="M59.2097 100.21C47.974 111.446 30.1652 111.854 19.4326 101.121C8.69995 90.3885 9.10779 72.5797 20.3435 61.344C31.5792 50.1083 49.388 49.7005 60.1206 60.4331C70.8532 71.1657 70.4454 88.9745 59.2097 100.21Z" fill="url(#paint0_linear)"/>
<rect width="45" height="82" transform="matrix(-0.655856 -0.754886 -0.754886 0.655856 126.414 33.9697)" fill="url(#paint1_linear)"/>
<path fill-rule="evenodd" clip-rule="evenodd" d="M63.0005 104.039C87.8533 104.039 108 83.8919 108 59.0391C108 34.1862 87.8533 14.0391 63.0005 14.0391C38.1477 14.0391 18.0005 34.1862 18.0005 59.0391C18.0005 83.8919 38.1477 104.039 63.0005 104.039Z" fill="#1F232D"/>
<path fill-rule="evenodd" clip-rule="evenodd" d="M63.5 29C46.6547 29 33 42.6562 33 59.5C33 76.3438 46.6547 90 63.5 90C80.3453 90 94 76.3453 94 59.5C94 42.6547 80.3453 29 63.5 29ZM72.5683 78.7483C57.9724 84.3619 42.1666 80.4496 37.2793 70.0116C32.392 59.5737 40.2519 46.5654 54.8493 40.9519C69.4468 35.3383 85.2511 39.2506 90.1384 49.6885C95.0257 60.1265 87.1658 73.1393 72.5683 78.7483Z" fill="white"/>
<path fill-rule="evenodd" clip-rule="evenodd" d="M78.4623 53.2809C79.23 53.2226 79.3206 53.8951 79.2961 54.1592C79.1963 55.016 78.0293 54.7595 77.842 55.5672V65.067L77.9172 65.1422H82.0384C83.1823 64.9687 83.9822 63.8494 84.6977 63.1461C85.1353 62.7208 85.619 61.9039 86.3376 62.363C86.4742 62.4874 86.6232 62.6379 86.5971 62.8728L86.5126 63.2705C86.1011 64.1396 84.71 67.0078 84.3369 67.5697L84.2141 67.6081L71.8277 67.5958C71.3993 67.559 71.2473 67.2473 71.149 66.9817C71.1115 66.7717 71.1461 66.5552 71.2473 66.3675C71.4715 66.0834 71.843 65.9713 72.1302 65.8347C72.3643 65.6985 72.5723 65.5218 72.7443 65.3126L72.7367 55.3983C72.0918 54.9208 71.1674 55.0789 71.2166 54.1469C71.2232 54.0177 71.2619 53.8923 71.3292 53.7818C71.3965 53.6714 71.4902 53.5794 71.602 53.5143C71.8698 53.3836 72.1612 53.3079 72.4588 53.2917L78.4623 53.2809Z" fill="white"/>
<path fill-rule="evenodd" clip-rule="evenodd" d="M68.8681 53.1736C68.8681 53.1736 70.2607 55.2925 70.7828 56.2613C70.8826 56.5469 70.944 56.9323 70.7336 57.1826C70.6762 57.2439 70.6071 57.293 70.5303 57.327C70.4536 57.361 70.3708 57.3793 70.2868 57.3807C69.7786 57.33 69.5913 56.8709 69.212 56.5976C68.7284 56.1508 68.4443 55.7331 67.7902 55.6088L63.5048 55.618C63.4434 55.9404 63.5201 58.3234 63.5201 59.1188H66.4375C67.2804 59.105 67.6658 58.5722 68.2677 58.0133C68.3714 57.9564 68.4886 57.9288 68.6068 57.9334C68.725 57.938 68.8397 57.9746 68.9387 58.0394C69.1138 58.2236 69.2857 58.5 69.1629 58.7841L68.951 59.2447L66.4574 62.8591C66.4006 62.9633 66.3176 63.0509 66.2166 63.1134C66.1157 63.1758 66.0003 63.211 65.8817 63.2153C65.6929 63.2354 65.5033 63.1869 65.3473 63.0787C64.9266 62.6948 65.2245 62.0868 65.3228 61.6507C65.2736 61.4772 64.9358 61.5478 64.8114 61.5095H63.5416C63.5155 62.7025 63.5416 65.0179 63.5416 65.0179H67.0732C68.3767 64.7585 69.321 63.6852 70.3897 63.0219C70.5188 62.9507 70.6692 62.9284 70.8135 62.9589C71.0238 62.9973 71.1851 63.2199 71.2588 63.4196C71.3463 63.7067 71.2096 63.9431 71.0745 64.1658L69.9797 65.8302C69.992 65.8548 69.2842 66.7515 68.8865 67.2812C68.7652 67.4501 68.7053 67.5023 68.561 67.4762H57.8958C57.234 67.467 56.9653 67.1537 56.8778 66.8912C56.7918 66.6685 56.8686 66.452 57.0145 66.234C57.1849 65.9776 57.4613 65.9607 57.6978 65.8363C57.6716 65.8118 58.2459 65.5861 58.3826 65.2882C58.444 64.4683 58.3826 55.3677 58.3826 55.3677C58.1584 54.9316 57.5611 54.9439 57.2141 54.6092C57.0485 54.4838 56.9261 54.3099 56.864 54.1117C56.8287 53.7033 57.2003 53.4177 57.512 53.2565L57.8344 53.1689L68.8681 53.1736Z" fill="white"/>
<path fill-rule="evenodd" clip-rule="evenodd" d="M51.3016 56.2502C51.8467 57.2436 51.8605 58.6961 51.1281 59.5897C50.7304 60.0504 50.1976 60.1778 49.5635 60.2039L47.9236 60.2515C47.8376 60.2269 47.7501 60.1778 47.7701 60.078L47.7578 55.5331C47.7824 55.4824 47.8699 55.5085 47.9113 55.4702C49.0921 55.5792 50.606 55.1185 51.3016 56.2502ZM52.5929 53.167C53.2725 53.2024 53.9351 53.392 54.5306 53.7213C55.7989 54.2802 56.8338 55.5469 56.9658 56.938C57.2729 58.5764 56.7294 60.2531 55.4135 61.2219C54.5061 61.8192 53.5556 62.2722 52.4486 62.4088C50.9484 62.4718 49.327 62.3766 47.8499 62.4088L47.7747 62.4825C47.8008 63.3147 47.7409 64.1822 47.7655 65.0267C47.8269 65.5242 48.656 65.8359 48.656 65.8359C48.98 65.9895 49.3516 66.1967 49.3393 66.6558C49.3327 66.757 49.3052 66.8556 49.2584 66.9455C49.2116 67.0354 49.1466 67.1145 49.0675 67.1779C48.6586 67.3752 48.2086 67.472 47.7547 67.4604L42.3239 67.4497C41.851 67.3637 41.2183 67.3268 41.1063 66.7664C41.0753 66.5946 41.1104 66.4175 41.2045 66.2704C41.3798 66.0662 41.6152 65.9227 41.8771 65.8605C41.8771 65.8605 42.4037 65.6885 42.5787 65.4782C42.591 64.5569 42.5787 55.8463 42.5787 55.8463C42.5545 55.6709 42.4959 55.5019 42.4063 55.3491C42.3168 55.1963 42.198 55.0626 42.0567 54.9558C41.6467 54.6088 41.1585 54.77 40.9819 54.1481C40.9508 53.9986 40.965 53.8432 41.0227 53.7018C41.0805 53.5604 41.179 53.4394 41.3059 53.3543C41.4214 53.2904 41.5421 53.2365 41.6667 53.1931L52.5929 53.167Z" fill="white"/>
<defs>
<linearGradient id="paint0_linear" x1="20.3435" y1="61.344" x2="59.2097" y2="100.21" gradientUnits="userSpaceOnUse">
<stop stop-color="#FF6441"/>
<stop offset="1" stop-color="#FF9C28"/>
</linearGradient>
<linearGradient id="paint1_linear" x1="22.5" y1="0" x2="22.5" y2="82" gradientUnits="userSpaceOnUse">
<stop stop-color="#27FD30"/>
<stop offset="1" stop-color="#32D3A3"/>
</linearGradient>
</defs>
</svg>
