<svg width="155" height="194" viewBox="0 0 155 194" fill="none" xmlns="http://www.w3.org/2000/svg">
<path d="M77.5 15.573C75.9553 15.573 74.6743 14.2848 74.6743 12.7312V2.8418C74.6743 1.28828 75.9553 0 77.5 0C79.0448 0 80.3258 1.28828 80.3258 2.8418V12.7312C80.3258 14.3227 79.0448 15.573 77.5 15.573Z" fill="#FF5370"/>
<path d="M29.6511 33.8363L22.681 26.8645C21.5884 25.7656 21.5884 23.9469 22.681 22.848C23.7736 21.7492 25.5821 21.7492 26.6747 22.848L33.6448 29.8578C34.7374 30.9566 34.8128 32.8133 33.6448 33.8742C32.0624 35.3141 30.2163 34.4047 29.6511 33.8363Z" fill="#FF5370"/>
<path d="M128.288 133.034L121.318 126.062C120.225 124.963 120.225 123.145 121.318 122.046C122.41 120.947 124.219 120.947 125.311 122.046L132.281 129.055C133.374 130.154 133.374 131.973 132.281 133.072C130.812 134.512 128.853 133.602 128.288 133.034Z" fill="#FF5370"/>
<path d="M12.6592 80.7828H2.82572C1.28099 80.7828 0 79.4946 0 77.941C0 76.3875 1.28099 75.0992 2.82572 75.0992H12.6592C14.2039 75.0992 15.4849 76.3875 15.4849 77.941C15.4849 79.4946 14.2416 80.7828 12.6592 80.7828Z" fill="#FF5370"/>
<path d="M152.174 80.7828H142.341C140.796 80.7828 139.515 79.4946 139.515 77.941C139.515 76.3875 140.796 75.0992 142.341 75.0992H152.174C153.719 75.0992 155 76.3875 155 77.941C155 79.4946 153.719 80.7828 152.174 80.7828Z" fill="#FF5370"/>
<path d="M22.6811 133.034C21.5131 132.011 21.5885 130.116 22.6811 129.018L29.6512 122.008C30.7438 120.909 32.5522 120.909 33.6449 122.008C34.7375 123.107 34.7375 124.925 33.6449 126.024L26.6748 133.034C25.5445 134.247 24.0751 134.247 22.6811 133.034Z" fill="#FF5370"/>
<path d="M121.318 33.8364C120.187 32.7375 120.225 30.9188 121.318 29.82L128.288 22.8102C129.38 21.7114 131.189 21.7114 132.281 22.8102C133.374 23.909 133.374 25.7278 132.281 26.8266L125.311 33.8364C124.784 34.4047 122.825 35.3141 121.318 33.8364Z" fill="#FF5370"/>
<path d="M132.093 62.1027C131.641 60.5871 130.096 59.7156 128.589 60.1703C127.082 60.625 126.215 62.1785 126.667 63.6941C127.986 68.3168 128.664 73.1289 128.664 77.9789C128.664 93.3246 121.92 107.761 110.203 117.575C102.931 123.637 98.1842 133.148 97.393 142.848H87.8609V87.2242C89.2926 87.9441 90.875 88.3609 92.5704 88.3609C98.2972 88.3609 102.931 83.7004 102.931 77.941C102.931 72.1816 98.2972 67.5211 92.5704 67.5211C86.8437 67.5211 82.2095 72.1816 82.2095 77.941V142.848H72.7904V117.234C72.7904 115.68 71.5094 114.392 69.9647 114.392C68.42 114.392 67.139 115.68 67.139 117.234V142.848H57.6069C56.8157 133.11 52.1062 123.675 44.91 117.65C33.0043 107.761 26.2226 93.173 26.3356 77.6758C26.4863 49.6367 50.2977 26.1824 78.1404 26.5234C96.225 26.7508 112.463 36.2613 121.619 51.948C122.41 53.3121 124.143 53.7668 125.499 52.9711C126.856 52.1754 127.308 50.4324 126.517 49.0684C121.656 40.7324 114.686 33.7227 106.435 28.7969C97.9205 23.7195 88.1623 20.8398 78.2158 20.8398C44.684 20.8398 20.8349 46.4918 20.6465 77.6758C20.5335 94.8781 28.0687 111.057 41.2554 122.046C47.8864 127.578 52.0308 136.634 52.0308 145.689V172.213C52.0308 175.888 55.0072 178.844 58.6242 178.844H65.2175V188.506C65.2175 191.537 67.6665 194 70.6806 194H84.244C87.2581 194 89.707 191.537 89.707 188.506V178.844H96.3004C99.955 178.844 102.894 175.85 102.894 172.213V145.689C102.894 136.671 107.076 127.578 113.782 121.932C126.818 111.02 134.278 94.9918 134.278 77.9789C134.316 72.5605 133.562 67.2559 132.093 62.1027ZM92.5704 73.2047C95.1701 73.2047 97.28 75.3266 97.28 77.941C97.28 80.5555 95.1701 82.6773 92.5704 82.6773C89.9708 82.6773 87.8609 80.5555 87.8609 77.941C87.8609 75.3266 89.9708 73.2047 92.5704 73.2047ZM84.0933 188.316H70.9066V178.844H84.0933V188.316ZM97.28 172.213C97.28 172.743 96.8655 173.16 96.3381 173.16H58.6618C58.1344 173.16 57.7199 172.743 57.7199 172.213V163.688H78.894C80.4387 163.688 81.7197 162.399 81.7197 160.846C81.7197 159.292 80.4387 158.004 78.894 158.004H57.7199V148.531H97.28V158.004H91.1764C89.6317 158.004 88.3507 159.292 88.3507 160.846C88.3507 162.399 89.6317 163.688 91.1764 163.688H97.28V172.213Z" fill="#464444"/>
<path d="M69.9647 107.647C71.5094 107.647 72.7904 106.359 72.7904 104.805V77.941C72.7904 72.1817 68.1562 67.5211 62.4294 67.5211C56.7027 67.5211 52.0685 72.1817 52.0685 77.941C52.0685 83.7004 56.7027 88.361 62.4294 88.361C64.1249 88.361 65.745 87.9442 67.139 87.2242V104.805C67.139 106.397 68.3823 107.647 69.9647 107.647ZM62.4294 82.6774C59.8298 82.6774 57.7199 80.5555 57.7199 77.941C57.7199 75.3266 59.8298 73.2047 62.4294 73.2047C65.0291 73.2047 67.139 75.3266 67.139 77.941C67.139 80.5555 65.0291 82.6774 62.4294 82.6774Z" fill="#FF5370"/>
<path d="M84.8636 107C83.2982 107 82 105.716 82 104.167V77.3872C82 71.6459 86.6964 67 92.5 67C98.3036 67 103 71.6459 103 77.3872C103 83.1284 98.3036 87.7743 92.5 87.7743C90.7818 87.7743 89.14 87.3588 87.7273 86.6412V104.167C87.7273 105.754 86.4673 107 84.8636 107ZM92.5 82.1086C95.1345 82.1086 97.2727 79.9934 97.2727 77.3872C97.2727 74.7809 95.1345 72.6657 92.5 72.6657C89.8655 72.6657 87.7273 74.7809 87.7273 77.3872C87.7273 79.9934 89.8655 82.1086 92.5 82.1086Z" fill="#FF5370"/>
</svg>
