<svg width="130" height="162" viewBox="0 0 130 162" fill="none" xmlns="http://www.w3.org/2000/svg">
<path d="M103.547 68.5385H25.8867V74.7692H103.547V68.5385Z" fill="#FF6441"/>
<path d="M103.547 87.2308H25.8867V93.4616H103.547V87.2308Z" fill="#FF6441"/>
<path d="M103.547 105.923H25.8867V112.154H103.547V105.923Z" fill="#FF6441"/>
<path d="M64.7166 124.615H25.8867V130.846H64.7166V124.615Z" fill="#FF6441"/>
<path d="M64.7971 23.3653C67.4777 23.3653 69.6508 21.2731 69.6508 18.6922C69.6508 16.1114 67.4777 14.0192 64.7971 14.0192C62.1165 14.0192 59.9434 16.1114 59.9434 18.6922C59.9434 21.2731 62.1165 23.3653 64.7971 23.3653Z" fill="#464444"/>
<path d="M129.433 37.3846C129.433 30.4918 123.649 24.9231 116.49 24.9231H98.5309C96.1444 22.3529 93.0704 20.4058 89.511 19.4322C86.5179 18.6144 84.2528 16.3947 83.3629 13.513C81.0574 5.72452 73.5746 0 64.7165 0C55.8584 0 48.3756 5.72452 46.0701 13.513C45.2206 16.3947 42.9151 18.5755 39.922 19.4322C36.403 20.4058 33.329 22.3529 30.9021 24.9231H12.9433C5.78404 24.9231 0 30.4918 0 37.3846V149.538C0 156.431 5.78404 162 12.9433 162C42.6724 162 79.1968 162 116.49 162C123.649 162 129.433 156.431 129.433 149.538C129.433 114.14 129.433 80.2601 129.433 37.3846ZM32.3582 37.2678C32.3987 31.7769 36.2412 26.9091 41.7017 25.3904C46.8386 23.9495 50.8024 20.1721 52.2586 15.2264C53.8765 9.93029 58.9729 6.23077 64.7165 6.23077C70.4601 6.23077 75.5565 9.93029 77.1744 15.2264C78.671 20.1721 82.5944 23.9885 87.7313 25.3904C93.2322 26.9481 97.0747 31.8548 97.0747 37.3846V43.6154H32.3582V37.2678ZM116.49 155.769C81.9068 155.769 47.4048 155.769 12.9433 155.769C9.38389 155.769 6.47165 152.965 6.47165 149.538V37.3846C6.47165 33.9577 9.38389 31.1538 12.9433 31.1538H26.9787C26.2911 33.062 25.8866 35.087 25.8866 37.2288V49.8462H103.546V37.3846C103.546 35.2038 103.142 33.101 102.414 31.1538H116.49C120.049 31.1538 122.961 33.9577 122.961 37.3846C122.961 55.1813 122.961 138.751 122.961 149.538C122.961 152.965 120.049 155.769 116.49 155.769Z" fill="#464444"/>
</svg>
