<svg width="1737" height="352" viewBox="0 0 1737 352" fill="none" xmlns="http://www.w3.org/2000/svg">
<rect width="57.1323" height="57.3259" transform="matrix(-0.667614 -0.744508 -0.77697 0.629537 280.683 67.5355)" fill="url(#paint0_linear)"/>
<path d="M924.437 214.956C924.353 204.179 935.966 197.353 945.341 202.668L985.999 225.721C995.374 231.037 995.479 244.508 986.188 249.969L945.895 273.653C936.604 279.115 924.885 272.47 924.801 261.693L924.437 214.956Z" fill="url(#paint1_linear)"/>
<g filter="url(#filter0_d)">
<path fill-rule="evenodd" clip-rule="evenodd" d="M1379 128C1393.91 128 1406 115.912 1406 101C1406 86.0883 1393.91 74 1379 74C1364.09 74 1352 86.0883 1352 101C1352 115.912 1364.09 128 1379 128Z" fill="url(#paint2_linear)"/>
</g>
<path d="M282.551 43V84.1H224.051V256H180.251V84.1H121.751V43H282.551ZM338.961 31V113.2C347.961 101.2 362.461 95.2 382.461 95.2C401.061 95.2 415.361 100.9 425.361 112.3C435.361 123.5 440.361 138.7 440.361 157.9V256H397.761V162.7C397.761 142.1 388.861 131.8 371.061 131.8C360.861 131.8 352.961 134.9 347.361 141.1C341.761 147.1 338.961 155.5 338.961 166.3V256H296.361V31H338.961ZM507.441 150.7L466.641 143.2C469.241 129.2 476.141 117.7 487.341 108.7C498.741 99.7 515.141 95.2 536.541 95.2C559.341 95.2 576.541 100.3 588.141 110.5C599.741 120.7 605.541 135.1 605.541 153.7V214.6C605.541 221.4 608.341 224.8 613.941 224.8L618.441 224.5V256.9C616.241 257.7 612.541 258.1 607.341 258.1C589.341 258.1 577.441 251.6 571.641 238.6C558.641 252.6 540.541 259.6 517.341 259.6C499.141 259.6 485.341 255.3 475.941 246.7C466.741 238.1 462.141 227 462.141 213.4C462.141 185.6 482.541 168.3 523.341 161.5L565.041 154.6V153.4C565.041 138 555.541 130.3 536.541 130.3C519.141 130.3 509.441 137.1 507.441 150.7ZM565.041 184.9L527.541 191.8C518.941 193.4 512.741 195.7 508.941 198.7C505.141 201.5 503.241 205.3 503.241 210.1C503.241 221.1 511.141 226.6 526.941 226.6C539.141 226.6 548.541 223.4 555.141 217C561.741 210.4 565.041 201.6 565.041 190.6V184.9ZM677.298 98.8V118C685.498 102.8 701.098 95.2 724.098 95.2C742.698 95.2 756.998 100.9 766.998 112.3C776.998 123.5 781.998 138.7 781.998 157.9V256H739.398V162.7C739.398 142.1 730.498 131.8 712.698 131.8C702.498 131.8 694.598 134.9 688.998 141.1C683.398 147.1 680.598 155.4 680.598 166V256H637.998V98.8H677.298ZM912.378 98.8H965.778L906.978 165.7L969.978 256H919.578L878.778 193.9L855.078 220.9V256H812.478V31H855.078V170.2L912.378 98.8ZM1166.44 43H1217.14L1138.54 181.6V256H1094.74V181.6L1016.14 43H1066.84L1116.34 136.9H1116.94L1166.44 43ZM1333.75 235.9C1318.55 251.7 1298.65 259.6 1274.05 259.6C1249.45 259.6 1229.55 251.7 1214.35 235.9C1199.15 219.9 1191.55 200.4 1191.55 177.4C1191.55 154.4 1199.15 135 1214.35 119.2C1229.55 103.2 1249.45 95.2 1274.05 95.2C1298.65 95.2 1318.55 103.2 1333.75 119.2C1348.95 135 1356.55 154.4 1356.55 177.4C1356.55 200.4 1348.95 219.9 1333.75 235.9ZM1245.25 144.7C1237.85 152.7 1234.15 163.6 1234.15 177.4C1234.15 191.2 1237.85 202.1 1245.25 210.1C1252.85 218.1 1262.45 222.1 1274.05 222.1C1285.65 222.1 1295.15 218.1 1302.55 210.1C1310.15 202.1 1313.95 191.2 1313.95 177.4C1313.95 163.6 1310.15 152.7 1302.55 144.7C1295.15 136.7 1285.65 132.7 1274.05 132.7C1262.45 132.7 1252.85 136.7 1245.25 144.7ZM1477.26 188.2V98.8H1519.86V256H1480.56V236.8C1472.36 252 1456.96 259.6 1434.36 259.6C1415.96 259.6 1401.76 254 1391.76 242.8C1381.96 231.4 1377.06 216.1 1377.06 196.9V98.8H1419.66V192.1C1419.66 212.7 1428.36 223 1445.76 223C1456.16 223 1463.96 220 1469.16 214C1474.56 208 1477.26 199.4 1477.26 188.2ZM1556.68 190.6L1549.18 43H1599.58L1592.08 190.6H1556.68ZM1574.38 258.4C1566.58 258.4 1560.08 255.9 1554.88 250.9C1549.88 245.9 1547.38 239.5 1547.38 231.7C1547.38 223.9 1549.88 217.5 1554.88 212.5C1560.08 207.3 1566.58 204.7 1574.38 204.7C1582.38 204.7 1588.88 207.3 1593.88 212.5C1598.88 217.5 1601.38 223.9 1601.38 231.7C1601.38 239.7 1598.88 246.2 1593.88 251.2C1588.88 256 1582.38 258.4 1574.38 258.4Z" fill="white"/>
<mask id="mask0" mask-type="alpha" maskUnits="userSpaceOnUse" x="121" y="31" width="1481" height="229">
<path d="M282.551 43V84.1H224.051V256H180.251V84.1H121.751V43H282.551ZM338.961 31V113.2C347.961 101.2 362.461 95.2 382.461 95.2C401.061 95.2 415.361 100.9 425.361 112.3C435.361 123.5 440.361 138.7 440.361 157.9V256H397.761V162.7C397.761 142.1 388.861 131.8 371.061 131.8C360.861 131.8 352.961 134.9 347.361 141.1C341.761 147.1 338.961 155.5 338.961 166.3V256H296.361V31H338.961ZM507.441 150.7L466.641 143.2C469.241 129.2 476.141 117.7 487.341 108.7C498.741 99.7 515.141 95.2 536.541 95.2C559.341 95.2 576.541 100.3 588.141 110.5C599.741 120.7 605.541 135.1 605.541 153.7V214.6C605.541 221.4 608.341 224.8 613.941 224.8L618.441 224.5V256.9C616.241 257.7 612.541 258.1 607.341 258.1C589.341 258.1 577.441 251.6 571.641 238.6C558.641 252.6 540.541 259.6 517.341 259.6C499.141 259.6 485.341 255.3 475.941 246.7C466.741 238.1 462.141 227 462.141 213.4C462.141 185.6 482.541 168.3 523.341 161.5L565.041 154.6V153.4C565.041 138 555.541 130.3 536.541 130.3C519.141 130.3 509.441 137.1 507.441 150.7ZM565.041 184.9L527.541 191.8C518.941 193.4 512.741 195.7 508.941 198.7C505.141 201.5 503.241 205.3 503.241 210.1C503.241 221.1 511.141 226.6 526.941 226.6C539.141 226.6 548.541 223.4 555.141 217C561.741 210.4 565.041 201.6 565.041 190.6V184.9ZM677.298 98.8V118C685.498 102.8 701.098 95.2 724.098 95.2C742.698 95.2 756.998 100.9 766.998 112.3C776.998 123.5 781.998 138.7 781.998 157.9V256H739.398V162.7C739.398 142.1 730.498 131.8 712.698 131.8C702.498 131.8 694.598 134.9 688.998 141.1C683.398 147.1 680.598 155.4 680.598 166V256H637.998V98.8H677.298ZM912.378 98.8H965.778L906.978 165.7L969.978 256H919.578L878.778 193.9L855.078 220.9V256H812.478V31H855.078V170.2L912.378 98.8ZM1166.44 43H1217.14L1138.54 181.6V256H1094.74V181.6L1016.14 43H1066.84L1116.34 136.9H1116.94L1166.44 43ZM1333.75 235.9C1318.55 251.7 1298.65 259.6 1274.05 259.6C1249.45 259.6 1229.55 251.7 1214.35 235.9C1199.15 219.9 1191.55 200.4 1191.55 177.4C1191.55 154.4 1199.15 135 1214.35 119.2C1229.55 103.2 1249.45 95.2 1274.05 95.2C1298.65 95.2 1318.55 103.2 1333.75 119.2C1348.95 135 1356.55 154.4 1356.55 177.4C1356.55 200.4 1348.95 219.9 1333.75 235.9ZM1245.25 144.7C1237.85 152.7 1234.15 163.6 1234.15 177.4C1234.15 191.2 1237.85 202.1 1245.25 210.1C1252.85 218.1 1262.45 222.1 1274.05 222.1C1285.65 222.1 1295.15 218.1 1302.55 210.1C1310.15 202.1 1313.95 191.2 1313.95 177.4C1313.95 163.6 1310.15 152.7 1302.55 144.7C1295.15 136.7 1285.65 132.7 1274.05 132.7C1262.45 132.7 1252.85 136.7 1245.25 144.7ZM1477.26 188.2V98.8H1519.86V256H1480.56V236.8C1472.36 252 1456.96 259.6 1434.36 259.6C1415.96 259.6 1401.76 254 1391.76 242.8C1381.96 231.4 1377.06 216.1 1377.06 196.9V98.8H1419.66V192.1C1419.66 212.7 1428.36 223 1445.76 223C1456.16 223 1463.96 220 1469.16 214C1474.56 208 1477.26 199.4 1477.26 188.2ZM1556.68 190.6L1549.18 43H1599.58L1592.08 190.6H1556.68ZM1574.38 258.4C1566.58 258.4 1560.08 255.9 1554.88 250.9C1549.88 245.9 1547.38 239.5 1547.38 231.7C1547.38 223.9 1549.88 217.5 1554.88 212.5C1560.08 207.3 1566.58 204.7 1574.38 204.7C1582.38 204.7 1588.88 207.3 1593.88 212.5C1598.88 217.5 1601.38 223.9 1601.38 231.7C1601.38 239.7 1598.88 246.2 1593.88 251.2C1588.88 256 1582.38 258.4 1574.38 258.4Z" fill="white"/>
</mask>
<g mask="url(#mask0)">
<rect x="1245" y="174.966" width="309.917" height="309.245" rx="35.3349" transform="rotate(-42.1471 1245 174.966)" fill="url(#paint3_linear)"/>
<path d="M496.965 104.953L664.842 -144.168L1308.05 -226.034L947.789 284.305L496.965 104.953Z" fill="url(#paint4_linear)"/>
<g filter="url(#filter1_d)">
<circle cx="297.577" cy="336.441" r="178.441" fill="url(#paint5_linear)"/>
</g>
</g>
<defs>
<filter id="filter0_d" x="1342" y="60" width="74" height="74" filterUnits="userSpaceOnUse" color-interpolation-filters="sRGB">
<feFlood flood-opacity="0" result="BackgroundImageFix"/>
<feColorMatrix in="SourceAlpha" type="matrix" values="0 0 0 0 0 0 0 0 0 0 0 0 0 0 0 0 0 0 127 0"/>
<feOffset dy="-4"/>
<feGaussianBlur stdDeviation="5"/>
<feColorMatrix type="matrix" values="0 0 0 0 0 0 0 0 0 0 0 0 0 0 0 0 0 0 0.0832605 0"/>
<feBlend mode="normal" in2="BackgroundImageFix" result="effect1_dropShadow"/>
<feBlend mode="normal" in="SourceGraphic" in2="effect1_dropShadow" result="shape"/>
</filter>
<filter id="filter1_d" x="110.302" y="145.633" width="374.549" height="374.549" filterUnits="userSpaceOnUse" color-interpolation-filters="sRGB">
<feFlood flood-opacity="0" result="BackgroundImageFix"/>
<feColorMatrix in="SourceAlpha" type="matrix" values="0 0 0 0 0 0 0 0 0 0 0 0 0 0 0 0 0 0 127 0"/>
<feOffset dy="-3.53349"/>
<feGaussianBlur stdDeviation="4.41686"/>
<feColorMatrix type="matrix" values="0 0 0 0 0 0 0 0 0 0 0 0 0 0 0 0 0 0 0.0832605 0"/>
<feBlend mode="normal" in2="BackgroundImageFix" result="effect1_dropShadow"/>
<feBlend mode="normal" in="SourceGraphic" in2="effect1_dropShadow" result="shape"/>
</filter>
<linearGradient id="paint0_linear" x1="50.8781" y1="5.86454" x2="-4.62718" y2="-2.0741" gradientUnits="userSpaceOnUse">
<stop stop-color="#FF5175"/>
<stop offset="1" stop-color="#FF6441"/>
</linearGradient>
<linearGradient id="paint1_linear" x1="924.248" y1="190.708" x2="979.973" y2="285.512" gradientUnits="userSpaceOnUse">
<stop stop-color="#27FD30"/>
<stop offset="1" stop-color="#32D3A3"/>
</linearGradient>
<linearGradient id="paint2_linear" x1="1341.72" y1="91.0816" x2="1369.31" y2="126.014" gradientUnits="userSpaceOnUse">
<stop stop-color="#FFDF00"/>
<stop offset="1" stop-color="#FFA441"/>
</linearGradient>
<linearGradient id="paint3_linear" x1="1344.68" y1="715.283" x2="1226.26" y2="162.139" gradientUnits="userSpaceOnUse">
<stop stop-color="#FF009E"/>
<stop offset="1" stop-color="#83B7FF"/>
</linearGradient>
<linearGradient id="paint4_linear" x1="552.721" y1="87.0773" x2="1089.96" y2="-135.277" gradientUnits="userSpaceOnUse">
<stop stop-color="#65A4FF"/>
<stop offset="1" stop-color="#0069FF"/>
</linearGradient>
<linearGradient id="paint5_linear" x1="51.1908" y1="270.891" x2="233.529" y2="501.756" gradientUnits="userSpaceOnUse">
<stop stop-color="#FFDF00"/>
<stop offset="1" stop-color="#FFA441"/>
</linearGradient>
</defs>
</svg>
