<svg width="899" height="183" viewBox="0 0 899 183" fill="none" xmlns="http://www.w3.org/2000/svg">
<g clip-path="url(#clip0)">
<mask id="mask0" mask-type="alpha" maskUnits="userSpaceOnUse" x="0" y="0" width="899" height="183">
<path d="M67.205 53.9347L98.2264 10.3167H131.692L83.1857 75.9317L134.324 143.803H99.9185L67.393 97.7407L34.4915 143.803H0.0859375L51.2243 75.9317L2.15403 10.3167H36.1836L67.205 53.9347Z" fill="white"/>
<path d="M169.209 133.274V182.909H142.511V45.2863H167.14V57.3189C173.658 47.7931 184.061 43.0302 198.35 43.0302C212.263 43.0302 223.292 47.9185 231.439 57.6949C239.586 67.4713 243.66 79.7546 243.66 94.5446C243.66 109.335 239.586 121.618 231.439 131.394C223.292 141.171 212.263 146.059 198.35 146.059C191.832 146.059 186.004 144.868 180.865 142.487C175.852 139.98 171.966 136.909 169.209 133.274ZM175.037 74.4276C170.65 79.6919 168.457 86.3975 168.457 94.5446C168.457 102.692 170.65 109.397 175.037 114.661C179.549 119.926 185.44 122.558 192.71 122.558C199.979 122.558 205.808 119.926 210.194 114.661C214.707 109.397 216.963 102.692 216.963 94.5446C216.963 86.3975 214.707 79.6919 210.194 74.4276C205.808 69.1634 199.979 66.5313 192.71 66.5313C185.44 66.5313 179.549 69.1634 175.037 74.4276Z" fill="white"/>
<path d="M351.385 102.253H279.941C280.819 109.021 283.325 114.223 287.462 117.858C291.598 121.367 297.05 123.122 303.818 123.122C308.08 123.122 311.903 122.244 315.287 120.49C318.796 118.61 321.303 115.915 322.807 112.405H349.693C346.81 122.432 341.107 130.58 332.584 136.846C324.186 142.988 314.347 146.059 303.066 146.059C288.527 146.059 276.62 141.233 267.345 131.582C258.07 121.931 253.432 109.523 253.432 94.3566C253.432 79.6919 258.07 67.4713 267.345 57.6949C276.62 47.9185 288.464 43.0302 302.878 43.0302C317.292 43.0302 329.012 47.9185 338.036 57.6949C347.186 67.346 351.761 79.5666 351.761 94.3566L351.385 102.253ZM302.69 64.4632C296.674 64.4632 291.723 66.1553 287.838 69.5394C283.952 72.7982 281.445 77.3105 280.317 83.076H325.063C324.061 77.4358 321.617 72.9236 317.731 69.5394C313.846 66.1553 308.832 64.4632 302.69 64.4632Z" fill="white"/>
<path d="M423.232 44.5343V69.5394C421.352 69.1634 419.597 68.9754 417.968 68.9754C410.071 68.9754 404.118 71.0435 400.107 75.1797C396.221 79.3159 394.279 85.8335 394.279 94.7326V143.803H367.581V45.2863H392.211V58.0709C397.851 48.9212 407.126 44.3463 420.036 44.3463L423.232 44.5343Z" fill="white"/>
<path d="M460.506 27.9895C457.498 30.9977 453.613 32.5018 448.85 32.5018C444.087 32.5018 440.201 30.9977 437.193 27.9895C434.185 24.9814 432.681 21.1586 432.681 16.521C432.681 11.8835 434.185 8.06064 437.193 5.0525C440.201 1.91903 444.087 0.352295 448.85 0.352295C453.613 0.352295 457.498 1.91903 460.506 5.0525C463.514 8.06064 465.018 11.8835 465.018 16.521C465.018 21.1586 463.514 24.9814 460.506 27.9895ZM435.501 143.803V45.2863H462.198V143.803H435.501Z" fill="white"/>
<path d="M576.258 102.253H504.815C505.692 109.021 508.199 114.223 512.335 117.858C516.471 121.367 521.923 123.122 528.692 123.122C532.953 123.122 536.776 122.244 540.16 120.49C543.67 118.61 546.177 115.915 547.681 112.405H574.566C571.683 122.432 565.98 130.58 557.457 136.846C549.059 142.988 539.22 146.059 527.94 146.059C513.4 146.059 501.493 141.233 492.218 131.582C482.943 121.931 478.306 109.523 478.306 94.3566C478.306 79.6919 482.943 67.4713 492.218 57.6949C501.493 47.9185 513.338 43.0302 527.752 43.0302C542.166 43.0302 553.885 47.9185 562.909 57.6949C572.059 67.346 576.634 79.5666 576.634 94.3566L576.258 102.253ZM527.564 64.4632C521.547 64.4632 516.597 66.1553 512.711 69.5394C508.826 72.7982 506.319 77.3105 505.191 83.076H549.937C548.934 77.4358 546.49 72.9236 542.604 69.5394C538.719 66.1553 533.705 64.4632 527.564 64.4632Z" fill="white"/>
<path d="M617.084 45.2863V57.3189C622.223 47.7931 631.999 43.0302 646.413 43.0302C658.07 43.0302 667.031 46.6024 673.298 53.7467C679.565 60.7657 682.699 70.2915 682.699 82.324V143.803H656.002V85.3321C656.002 72.4222 650.424 65.9673 639.269 65.9673C632.877 65.9673 627.926 67.91 624.416 71.7955C620.907 75.5557 619.152 80.7573 619.152 87.4002V143.803H592.455V45.2863H617.084Z" fill="white"/>
<path d="M711.78 131.394C702.505 121.492 697.867 109.209 697.867 94.5446C697.867 79.8799 702.505 67.6593 711.78 57.8829C721.181 47.9811 733.025 43.0302 747.314 43.0302C761.352 43.0302 772.381 46.9784 780.403 54.8748C788.55 62.7711 793.188 71.6075 794.316 81.384H766.867C765.864 77.1224 763.545 73.6129 759.91 70.8555C756.275 68.098 752.014 66.7193 747.126 66.7193C740.107 66.7193 734.592 69.2887 730.581 74.4276C726.57 79.4412 724.565 86.1468 724.565 94.5446C724.565 102.942 726.57 109.711 730.581 114.849C734.592 119.863 740.107 122.37 747.126 122.37C752.014 122.37 756.275 120.991 759.91 118.234C763.545 115.476 765.864 111.967 766.867 107.705H794.316C793.188 117.482 788.55 126.318 780.403 134.214C772.381 142.111 761.352 146.059 747.314 146.059C733.025 146.059 721.181 141.171 711.78 131.394Z" fill="white"/>
<path d="M898.624 102.253H827.181C828.058 109.021 830.565 114.223 834.701 117.858C838.837 121.367 844.29 123.122 851.058 123.122C855.319 123.122 859.142 122.244 862.526 120.49C866.036 118.61 868.543 115.915 870.047 112.405H896.932C894.049 122.432 888.346 130.58 879.823 136.846C871.425 142.988 861.586 146.059 850.306 146.059C835.766 146.059 823.859 141.233 814.584 131.582C805.309 121.931 800.672 109.523 800.672 94.3566C800.672 79.6919 805.309 67.4713 814.584 57.6949C823.859 47.9185 835.704 43.0302 850.118 43.0302C864.532 43.0302 876.251 47.9185 885.275 57.6949C894.425 67.346 899 79.5666 899 94.3566L898.624 102.253ZM849.93 64.4632C843.913 64.4632 838.963 66.1553 835.077 69.5394C831.192 72.7982 828.685 77.3105 827.557 83.076H872.303C871.3 77.4358 868.856 72.9236 864.97 69.5394C861.085 66.1553 856.071 64.4632 849.93 64.4632Z" fill="white"/>
</mask>
<g mask="url(#mask0)">
<mask id="mask1" mask-type="alpha" maskUnits="userSpaceOnUse" x="-19052" y="-3586" width="37450" height="7137">
<path d="M-16703.7 3439.58H-19051.7V-3097.94H-16703.7C-15617.2 -3097.94 -14773.1 -2797.16 -14171.6 -2195.58C-13563.8 -1594.01 -13260 -805.206 -13260 170.818C-13260 1146.84 -13563.8 1935.64 -14171.6 2537.22C-14773.1 3138.79 -15617.2 3439.58 -16703.7 3439.58ZM-15193.6 1671.69C-14849.9 1309.51 -14678 809.224 -14678 170.818C-14678 -467.588 -14849.9 -964.808 -15193.6 -1320.84C-15531.2 -1683.01 -16046.9 -1864.1 -16740.5 -1864.1H-17707.3V2205.74H-16740.5C-16046.9 2205.74 -15531.2 2027.72 -15193.6 1671.69Z" fill="white"/>
<path d="M-11063.5 -2232.41C-11210.8 -2085.09 -11401.1 -2011.43 -11634.4 -2011.43C-11867.6 -2011.43 -12057.9 -2085.09 -12205.2 -2232.41C-12352.6 -2379.74 -12426.2 -2566.96 -12426.2 -2794.09C-12426.2 -3021.21 -12352.6 -3208.44 -12205.2 -3355.76C-12057.9 -3509.22 -11867.6 -3585.96 -11634.4 -3585.96C-11401.1 -3585.96 -11210.8 -3509.22 -11063.5 -3355.76C-10916.2 -3208.44 -10842.5 -3021.21 -10842.5 -2794.09C-10842.5 -2566.96 -10916.2 -2379.74 -11063.5 -2232.41ZM-12288.1 3439.58V-1385.3H-10980.6V3439.58H-12288.1Z" fill="white"/>
<path d="M-8080.93 3550.07C-9394.57 3550.07 -10091.3 2991.47 -10171.1 1874.26H-8845.17C-8832.9 2052.27 -8762.3 2202.67 -8633.4 2325.44C-8498.35 2442.07 -8301.92 2500.39 -8044.1 2500.39C-7798.56 2500.39 -7611.34 2460.49 -7482.43 2380.69C-7353.52 2300.88 -7289.06 2193.46 -7289.06 2058.41C-7289.06 1911.09 -7381.14 1803.66 -7565.3 1736.14C-7749.45 1662.48 -7973.51 1604.16 -8237.46 1561.19C-8495.28 1518.22 -8756.17 1459.91 -9020.12 1386.25C-9284.08 1312.58 -9508.13 1168.33 -9692.29 953.479C-9876.44 738.631 -9968.52 453.19 -9968.52 97.1562C-9968.52 -350.956 -9790.5 -728.475 -9434.47 -1035.4C-9078.44 -1342.33 -8611.91 -1495.79 -8034.89 -1495.79C-7378.07 -1495.79 -6890.06 -1330.05 -6570.86 -998.57C-6251.66 -667.09 -6079.78 -289.571 -6055.22 133.987H-7316.69C-7328.96 -31.7529 -7399.56 -169.87 -7528.47 -280.363C-7651.24 -390.856 -7823.11 -446.103 -8044.1 -446.103C-8252.81 -446.103 -8415.48 -400.064 -8532.11 -307.986C-8648.74 -222.047 -8707.06 -111.554 -8707.06 23.4937C-8707.06 170.818 -8614.98 278.242 -8430.83 345.766C-8246.67 413.29 -8025.68 468.536 -7767.87 511.506C-7503.91 548.337 -7243.03 603.584 -6985.21 677.246C-6721.25 750.908 -6497.2 898.233 -6313.04 1119.22C-6128.89 1340.21 -6036.81 1634.86 -6036.81 2003.17C-6036.81 2451.28 -6220.96 2822.66 -6589.27 3117.31C-6951.45 3405.82 -7448.67 3550.07 -8080.93 3550.07Z" fill="white"/>
<path d="M-4817.4 2831.87C-5271.65 2346.92 -5498.78 1745.35 -5498.78 1027.14C-5498.78 308.935 -5271.65 -289.571 -4817.4 -768.375C-4357.01 -1253.32 -3776.93 -1495.79 -3077.14 -1495.79C-2389.63 -1495.79 -1849.44 -1302.43 -1456.57 -915.7C-1057.57 -528.973 -830.446 -96.2074 -775.199 382.597H-2119.53C-2168.64 173.887 -2282.2 2.00894 -2460.22 -133.038C-2638.23 -268.086 -2846.94 -335.61 -3086.34 -335.61C-3430.1 -335.61 -3700.2 -209.77 -3896.63 41.9093C-4093.06 287.45 -4191.27 615.861 -4191.27 1027.14C-4191.27 1438.42 -4093.06 1769.9 -3896.63 2021.58C-3700.2 2267.12 -3430.1 2389.89 -3086.34 2389.89C-2846.94 2389.89 -2638.23 2322.37 -2460.22 2187.32C-2282.2 2052.27 -2168.64 1880.4 -2119.53 1671.69H-775.199C-830.446 2150.49 -1057.57 2583.26 -1456.57 2969.98C-1849.44 3356.71 -2389.63 3550.07 -3077.14 3550.07C-3776.93 3550.07 -4357.01 3310.67 -4817.4 2831.87Z" fill="white"/>
<path d="M3994.88 2822.66C3528.35 3307.6 2917.57 3550.07 2162.53 3550.07C1407.5 3550.07 796.716 3307.6 330.19 2822.66C-136.336 2331.58 -369.6 1733.07 -369.6 1027.14C-369.6 321.212 -136.336 -274.224 330.19 -759.167C796.716 -1250.25 1407.5 -1495.79 2162.53 -1495.79C2917.57 -1495.79 3528.35 -1250.25 3994.88 -759.167C4461.4 -274.224 4694.67 321.212 4694.67 1027.14C4694.67 1733.07 4461.4 2331.58 3994.88 2822.66ZM1278.59 23.4937C1051.46 269.034 937.902 603.584 937.902 1027.14C937.902 1450.7 1051.46 1785.25 1278.59 2030.79C1511.85 2276.33 1806.5 2399.1 2162.53 2399.1C2518.57 2399.1 2810.14 2276.33 3037.27 2030.79C3270.53 1785.25 3387.16 1450.7 3387.16 1027.14C3387.16 603.584 3270.53 269.034 3037.27 23.4937C2810.14 -222.047 2518.57 -344.817 2162.53 -344.817C1806.5 -344.817 1511.85 -222.047 1278.59 23.4937Z" fill="white"/>
<path d="M7384.15 1865.05L8562.74 -1385.3H9916.28L7982.65 3439.58H6767.23L4833.6 -1385.3H6214.76L7384.15 1865.05Z" fill="white"/>
<path d="M14784.9 1404.66H11286C11328.9 1736.14 11451.7 1990.89 11654.3 2168.91C11856.8 2340.78 12123.9 2426.72 12455.3 2426.72C12664.1 2426.72 12851.3 2383.75 13017 2297.82C13188.9 2205.74 13311.7 2073.76 13385.3 1901.88H14702C14560.9 2392.96 14281.6 2791.97 13864.1 3098.89C13452.9 3399.68 12971 3550.07 12418.5 3550.07C11706.5 3550.07 11123.3 3313.74 10669 2841.07C10214.8 2368.41 9987.67 1760.69 9987.67 1017.93C9987.67 299.727 10214.8 -298.778 10669 -777.583C11123.3 -1256.39 11703.4 -1495.79 12409.3 -1495.79C13115.2 -1495.79 13689.2 -1256.39 14131.2 -777.583C14579.3 -304.917 14803.3 293.589 14803.3 1017.93L14784.9 1404.66ZM12400.1 -446.103C12105.5 -446.103 11863 -363.233 11672.7 -197.493C11482.4 -37.8914 11359.6 183.095 11304.4 465.467H13495.8C13446.7 189.234 13327 -31.7529 13136.7 -197.493C12946.4 -363.233 12700.9 -446.103 12400.1 -446.103Z" fill="white"/>
<path d="M18398 -1422.13V-197.493C18305.9 -215.909 18220 -225.116 18140.2 -225.116C17753.4 -225.116 17461.9 -123.831 17265.4 78.7405C17075.1 281.312 16980 600.515 16980 1036.35V3439.58H15672.5V-1385.3H16878.7V-759.167C17154.9 -1207.28 17609.2 -1431.34 18241.4 -1431.34L18398 -1422.13Z" fill="white"/>
</mask>
<g mask="url(#mask1)">
<rect x="-76.8519" y="-154.78" width="1061.7" height="599.416" fill="#181B23"/>
<rect x="10.9981" y="180.296" width="79.6805" height="81.1293" rx="11.0593" transform="rotate(76.1694 10.9981 180.296)" fill="url(#paint0_linear)"/>
<path d="M28.3332 588.534L178.133 283.178L-189.437 151.993L-288.59 473.183L28.3332 588.534Z" fill="url(#paint1_linear)"/>
<path d="M1047.85 -223.195L770.11 -422.733L51.1099 -255.731L637.531 146.567L1047.85 -223.195Z" fill="url(#paint2_linear)"/>
<g style="mix-blend-mode:hard-light" filter="url(#filter0_d)">
<circle cx="30.373" cy="-71.0265" r="142.389" fill="url(#paint3_linear)"/>
</g>
<rect x="866.182" y="83.2092" width="194" height="193.579" rx="19.3538" transform="rotate(-42.1471 866.182 83.2092)" fill="url(#paint4_linear)"/>
<circle cx="803.42" cy="-21.2585" r="37.8782" fill="url(#paint5_linear)"/>
</g>
</g>
</g>
<defs>
<filter id="filter0_d" x="-117.546" y="-221.157" width="295.837" height="295.837" filterUnits="userSpaceOnUse" color-interpolation-filters="sRGB">
<feFlood flood-opacity="0" result="BackgroundImageFix"/>
<feColorMatrix in="SourceAlpha" type="matrix" values="0 0 0 0 0 0 0 0 0 0 0 0 0 0 0 0 0 0 127 0"/>
<feOffset dy="-2.21187"/>
<feGaussianBlur stdDeviation="2.76483"/>
<feColorMatrix type="matrix" values="0 0 0 0 0 0 0 0 0 0 0 0 0 0 0 0 0 0 0.0832605 0"/>
<feBlend mode="normal" in2="BackgroundImageFix" result="effect1_dropShadow"/>
<feBlend mode="normal" in="SourceGraphic" in2="effect1_dropShadow" result="shape"/>
</filter>
<linearGradient id="paint0_linear" x1="36.6255" y1="322.047" x2="4.98321" y2="177.193" gradientUnits="userSpaceOnUse">
<stop stop-color="#5158FF"/>
<stop offset="1" stop-color="#41FF8D"/>
</linearGradient>
<linearGradient id="paint1_linear" x1="84.2098" y1="290.705" x2="16.2848" y2="615.483" gradientUnits="userSpaceOnUse">
<stop stop-color="#FF5175"/>
<stop offset="1" stop-color="#FF6441"/>
</linearGradient>
<linearGradient id="paint2_linear" x1="956.359" y1="-158.134" x2="155.057" y2="-321.287" gradientUnits="userSpaceOnUse">
<stop stop-color="#4692FF"/>
<stop offset="1" stop-color="#0069FF"/>
</linearGradient>
<linearGradient id="paint3_linear" x1="-166.233" y1="-123.333" x2="-20.7348" y2="60.888" gradientUnits="userSpaceOnUse">
<stop stop-color="#FFDF00"/>
<stop offset="1" stop-color="#FFA441"/>
</linearGradient>
<linearGradient id="paint4_linear" x1="928.577" y1="421.433" x2="854.453" y2="75.1799" gradientUnits="userSpaceOnUse">
<stop stop-color="#5158FF"/>
<stop offset="1" stop-color="#41FF8D"/>
</linearGradient>
<linearGradient id="paint5_linear" x1="832.518" y1="-42.1315" x2="759.931" y2="-54.1023" gradientUnits="userSpaceOnUse">
<stop stop-color="#FF5175"/>
<stop offset="1" stop-color="#FF6441"/>
</linearGradient>
<clipPath id="clip0">
<rect width="898.914" height="182.556" fill="white" transform="translate(0.0859375 0.352295)"/>
</clipPath>
</defs>
</svg>
